<svg xmlns="http://www.w3.org/2000/svg" xmlns:xlink="http://www.w3.org/1999/xlink" viewBox="0 0 1629.16 1068.58">
  <defs>
    <style>
      .cls-1 {
        fill: url(#Gradiente_sem_nome_100);
      }

      .cls-2 {
        fill: url(#Gradiente_sem_nome_103);
      }

      .cls-3 {
        fill: url(#Gradiente_sem_nome_103-2);
      }

      .cls-4 {
        fill: url(#Gradiente_sem_nome_103-3);
      }

      .cls-5 {
        fill: url(#Gradiente_sem_nome_103-4);
      }

      .cls-6 {
        fill: url(#Gradiente_sem_nome_103-5);
      }

      .cls-7 {
        fill: url(#Gradiente_sem_nome_103-6);
      }

      .cls-8 {
        fill: url(#Gradiente_sem_nome_103-7);
      }

      .cls-9 {
        fill: url(#Gradiente_sem_nome_103-8);
      }

      .cls-10 {
        fill: url(#Gradiente_sem_nome_55);
      }

      .cls-11 {
        fill: url(#Gradiente_sem_nome_65);
      }

      .cls-12 {
        fill: url(#Gradiente_sem_nome_52);
      }

      .cls-13 {
        fill: #fff;
      }

      .cls-14 {
        fill: url(#Gradiente_sem_nome_75);
      }

      .cls-15 {
        fill: url(#Gradiente_sem_nome_81);
      }

      .cls-16 {
        fill: url(#Gradiente_sem_nome_72);
      }

      .cls-17 {
        fill: url(#Gradiente_sem_nome_77);
      }

      .cls-18 {
        fill: url(#Gradiente_sem_nome_79);
      }

      .cls-19 {
        fill: url(#Gradiente_sem_nome_68);
      }
    </style>
    <radialGradient id="Gradiente_sem_nome_100" data-name="Gradiente sem nome 100" cx="-70.09" cy="293.92" r="544.83" gradientTransform="translate(73.69 190.59) scale(1.52)" gradientUnits="userSpaceOnUse">
      <stop offset="0" stop-color="#ae1e53"/>
      <stop offset="0.28" stop-color="#b22358"/>
      <stop offset="0.42" stop-color="#b6285d"/>
      <stop offset="0.47" stop-color="#c3376d"/>
      <stop offset="0.58" stop-color="#e56096"/>
      <stop offset="0.6" stop-color="#ed699f"/>
      <stop offset="1" stop-color="#ed699f"/>
    </radialGradient>
    <radialGradient id="Gradiente_sem_nome_103" data-name="Gradiente sem nome 103" cx="244.09" cy="302.72" r="309.2" gradientTransform="translate(73.69 190.59) scale(1.52)" gradientUnits="userSpaceOnUse">
      <stop offset="0" stop-color="#ae1e53"/>
      <stop offset="0.21" stop-color="#b22358"/>
      <stop offset="0.46" stop-color="#be3166"/>
      <stop offset="0.72" stop-color="#d2487e"/>
      <stop offset="1" stop-color="#ed699f"/>
      <stop offset="1" stop-color="#ed699f"/>
    </radialGradient>
    <radialGradient id="Gradiente_sem_nome_103-2" cx="457.69" cy="489.3" r="63.52" xlink:href="#Gradiente_sem_nome_103"/>
    <radialGradient id="Gradiente_sem_nome_103-3" cx="560.96" cy="505.91" r="43.1" xlink:href="#Gradiente_sem_nome_103"/>
    <radialGradient id="Gradiente_sem_nome_103-4" cx="634.27" cy="489.19" r="53.07" xlink:href="#Gradiente_sem_nome_103"/>
    <radialGradient id="Gradiente_sem_nome_103-5" cx="729.05" cy="489.19" r="57.03" xlink:href="#Gradiente_sem_nome_103"/>
    <radialGradient id="Gradiente_sem_nome_103-6" cx="817.07" cy="506.94" r="53.75" xlink:href="#Gradiente_sem_nome_103"/>
    <radialGradient id="Gradiente_sem_nome_103-7" cx="920.43" cy="506.22" r="46.89" xlink:href="#Gradiente_sem_nome_103"/>
    <radialGradient id="Gradiente_sem_nome_103-8" cx="997.77" cy="489.19" r="53.07" xlink:href="#Gradiente_sem_nome_103"/>
    <linearGradient id="Gradiente_sem_nome_55" data-name="Gradiente sem nome 55" x1="2304.36" y1="526.88" x2="2300.01" y2="453.01" gradientTransform="matrix(-0.87, -0.5, -0.5, 0.87, 3377.68, 1468.94)" gradientUnits="userSpaceOnUse">
      <stop offset="0.32" stop-color="#00adef"/>
      <stop offset="0.58" stop-color="#42c6f6"/>
      <stop offset="0.87" stop-color="#83defc"/>
      <stop offset="1" stop-color="#9ce8ff"/>
    </linearGradient>
    <radialGradient id="Gradiente_sem_nome_65" data-name="Gradiente sem nome 65" cx="2872.32" cy="352.49" r="13.98" gradientTransform="matrix(-1.32, -0.76, -0.76, 1.32, 5206.37, 2422.77)" gradientUnits="userSpaceOnUse">
      <stop offset="0" stop-color="#9ce8ff"/>
      <stop offset="0.34" stop-color="#51ccf7"/>
      <stop offset="0.68" stop-color="#00adef"/>
    </radialGradient>
    <radialGradient id="Gradiente_sem_nome_52" data-name="Gradiente sem nome 52" cx="2843.28" cy="44.11" r="353.2" gradientTransform="matrix(-1.32, -0.76, -0.76, 1.32, 5206.37, 2422.77)" gradientUnits="userSpaceOnUse">
      <stop offset="0" stop-color="#9ce8ff"/>
      <stop offset="0.13" stop-color="#83defc"/>
      <stop offset="0.42" stop-color="#42c6f6"/>
      <stop offset="0.68" stop-color="#00adef"/>
      <stop offset="0.73" stop-color="#05aff0"/>
      <stop offset="0.78" stop-color="#13b4f1"/>
      <stop offset="0.83" stop-color="#2bbdf3"/>
      <stop offset="0.89" stop-color="#4ccaf7"/>
      <stop offset="0.95" stop-color="#76dafb"/>
      <stop offset="1" stop-color="#9ce8ff"/>
    </radialGradient>
    <linearGradient id="Gradiente_sem_nome_75" data-name="Gradiente sem nome 75" x1="3035.87" y1="754.25" x2="3031.28" y2="676.25" gradientTransform="matrix(1, 0.06, -0.06, 1, -1831.03, -150.22)" gradientUnits="userSpaceOnUse">
      <stop offset="0.32" stop-color="#ae1e53"/>
      <stop offset="0.75" stop-color="#d85086"/>
      <stop offset="1" stop-color="#ed699f"/>
    </linearGradient>
    <radialGradient id="Gradiente_sem_nome_81" data-name="Gradiente sem nome 81" cx="2570.01" cy="331.4" r="14.92" gradientTransform="translate(-2708.73 -37.68) rotate(3.37) scale(1.52)" gradientUnits="userSpaceOnUse">
      <stop offset="0" stop-color="#ed699f"/>
      <stop offset="0.67" stop-color="#af2055"/>
      <stop offset="0.68" stop-color="#ae1e53"/>
    </radialGradient>
    <radialGradient id="Gradiente_sem_nome_72" data-name="Gradiente sem nome 72" cx="2539.07" cy="2.52" r="376.4" gradientTransform="translate(-2708.73 -37.68) rotate(3.37) scale(1.52)" gradientUnits="userSpaceOnUse">
      <stop offset="0" stop-color="#ed699f"/>
      <stop offset="0.25" stop-color="#d85086"/>
      <stop offset="0.68" stop-color="#ae1e53"/>
      <stop offset="0.75" stop-color="#b22358"/>
      <stop offset="0.83" stop-color="#be3166"/>
      <stop offset="0.91" stop-color="#d2487e"/>
      <stop offset="1" stop-color="#ed699f"/>
      <stop offset="1" stop-color="#ed699f"/>
    </radialGradient>
    <linearGradient id="Gradiente_sem_nome_77" data-name="Gradiente sem nome 77" x1="2910.13" y1="1157.08" x2="2906.63" y2="1097.69" gradientTransform="matrix(-0.96, -0.29, -0.29, 0.96, 4265.49, 492.63)" gradientUnits="userSpaceOnUse">
      <stop offset="0.32" stop-color="#f7941d"/>
      <stop offset="0.77" stop-color="#fdb55a"/>
      <stop offset="1" stop-color="#ffc373"/>
    </linearGradient>
    <radialGradient id="Gradiente_sem_nome_79" data-name="Gradiente sem nome 79" cx="3442.58" cy="873.22" r="10.82" gradientTransform="matrix(-1.45, -0.44, -0.44, 1.45, 6555.48, 939.19)" gradientUnits="userSpaceOnUse">
      <stop offset="0" stop-color="#ffc373"/>
      <stop offset="0.59" stop-color="#f89a29"/>
      <stop offset="0.68" stop-color="#f7941d"/>
    </radialGradient>
    <radialGradient id="Gradiente_sem_nome_68" data-name="Gradiente sem nome 68" cx="3419.99" cy="634.35" r="274.5" gradientTransform="matrix(-1.45, -0.44, -0.44, 1.45, 6555.48, 939.19)" gradientUnits="userSpaceOnUse">
      <stop offset="0" stop-color="#ffc373"/>
      <stop offset="0.23" stop-color="#fdb55a"/>
      <stop offset="0.68" stop-color="#f7941d"/>
      <stop offset="0.74" stop-color="#f79722"/>
      <stop offset="0.82" stop-color="#f99e30"/>
      <stop offset="0.9" stop-color="#fbab48"/>
      <stop offset="0.98" stop-color="#febd69"/>
      <stop offset="1" stop-color="#ffc373"/>
    </radialGradient>
  </defs>
  <title>iconAtivo 7vetor</title>
  <g id="Camada_2" data-name="Camada 2">
    <g id="Camada_1-2" data-name="Camada 1">
      <path class="cls-1" d="M169.61,1068.58a121.53,121.53,0,0,1-39.72-6.47,135.56,135.56,0,0,1-37.84-18.27,113.3,113.3,0,0,1-28.63-30c-8.11-12.17-13.78-21.32-17.32-28s-8.9-18-15.93-33.83c-14.17-31-23.59-93.28-28-185.11C-2.2,675.5,0,571.42,8.78,457.58S32.62,244.76,53.67,163.19c4.63-18.51,15.65-32.84,32.77-42.54a68.7,68.7,0,0,1,34.23-9.3,75.62,75.62,0,0,1,20.21,2.87h1.41l.59.2a76.58,76.58,0,0,1,39.46,29.09,60.78,60.78,0,0,1,10.52,46.29c-55.45,335.22-62.42,611-20.75,819.72,97.49-45.84,184.73-104.29,259.37-173.78A18.65,18.65,0,0,1,445,830a25.65,25.65,0,0,1,10.24,2.36c6.4,2.21,10.62,7,12.21,13.89s-.34,13.43-5.63,18.71C411,918.4,353.22,969.94,290.2,1018.07c-28.32,22.1-52.65,36.49-72.29,42.75C201,1066,184.79,1068.58,169.61,1068.58Z"/>
      <path class="cls-2" d="M493.46,1057.3a152.57,152.57,0,0,1-48.35-7.52l-.15,0c-26.35-10-45.25-28-56.16-53.44l-.06-.16c-3.26-8.68-1-16.14,6.62-21.57,4-3.12,8.12-4.75,12.09-4.75,5.23,0,10,2.74,14.22,8.14,10.81,13.33,25.25,22.88,42.9,28.33a111.55,111.55,0,0,0,33.09,5.14,109,109,0,0,0,20.38-1.95,119,119,0,0,0,54.2-26.79,138.52,138.52,0,0,0,36.54-50c9.25-21,11.4-41,6.4-59.38-5.94-25.4-29.79-52.55-70.93-80.84-43.83-29.78-82.34-60.72-114.43-92s-56.89-60.46-73.67-87-29.35-54.1-37.32-82-12.45-51.87-13.32-71.34,1.36-40.74,6.69-63,10.47-39.36,15.33-51.27a351.06,351.06,0,0,1,19.3-39.28c40.56-76.73,103.23-133.6,186.24-168.93a226.14,226.14,0,0,1,86.48-17.38A242,242,0,0,1,675.06,127a138.55,138.55,0,0,1,36.49,13.52,180.69,180.69,0,0,1,32.3,22.21,237.91,237.91,0,0,1,27.45,28.11,175.78,175.78,0,0,1,21.55,33,232.27,232.27,0,0,1,14.07,34.84c16,56.88,9.74,119.77-18.57,187-15,37.81-42.57,85-82,140.26-4.93,7.82-12.34,13-22,15.41A52.08,52.08,0,0,1,671.71,603a46,46,0,0,1-14.54-2.35l-.86-.29-1.41-1.42c-9.42-4-16.1-11.27-19.87-21.7-3.88-10.63-3.37-21,1.49-30.67,23.48-44.34,42.87-95,57.68-150.74,10.35-41.42,13.87-77.74,10.44-107.91-1.76-13.93-3.08-23.63-3.93-28.79s-2.83-13.64-5.85-25.35c-2.89-11.09-7.4-19.56-13.4-25.17A67.18,67.18,0,0,0,659,195.13c-39,.37-89.27,32.32-149.36,95-44.88,46.6-71.56,98.62-79.32,154.62-4.3,27.45-.8,59.21,10.39,94.48s26.44,64.11,45.33,85.56c15.58,17.33,39.88,41.4,72.18,71.52s56,53.12,70,68c31.86,34.51,52.08,64.22,60.12,88.34l0,.18a135.89,135.89,0,0,1,1.36,68.42,156.07,156.07,0,0,1-31,62.78c-14.31,17-32.16,31.68-53.09,43.71a213.51,213.51,0,0,1-69.07,24.82A210.32,210.32,0,0,1,493.46,1057.3Z"/>
      <g>
        <path class="cls-3" d="M841,1041.05a13.06,13.06,0,0,1-12.31-8.73l-24.07-68.56h-70.7l-24,68.38a13.33,13.33,0,0,1-12.56,8.91,12.94,12.94,0,0,1-12.21-17.22l63.86-182a21.93,21.93,0,0,1,20.66-14.65,20.8,20.8,0,0,1,19.6,13.89l64.06,182.57a13.07,13.07,0,0,1-12.33,17.4ZM796.09,939.18l-26.87-76.94-26.87,76.94Z"/>
        <path class="cls-4" d="M895.47,1041.05a13,13,0,0,1-13-13V937.59c0-23.08,13.25-44.29,33.74-54l.6-.3A61.53,61.53,0,0,1,961,880.52a12.47,12.47,0,0,1,2.49,22.71,16.12,16.12,0,0,1-8,2.17,14.63,14.63,0,0,1-4.08-.58,32,32,0,0,0-9-1.31,35,35,0,0,0-6.2.58c-16.15,3-27.87,17.48-27.87,34.52v89.58A12.88,12.88,0,0,1,895.47,1041.05Z"/>
        <path class="cls-5" d="M1037.75,1041.05a13.34,13.34,0,0,1-13.32-13.32v-123h-13a13.15,13.15,0,0,1-13.14-13.13A12.72,12.72,0,0,1,1011,878.93h13.47V840.32a13.46,13.46,0,0,1,13.45-13.44,12.73,12.73,0,0,1,12.72,12.72v39.33h13.32a12.92,12.92,0,1,1-.13,25.84H1050.6V1028.2A12.86,12.86,0,0,1,1037.75,1041.05Z"/>
        <path class="cls-6" d="M1134.7,1041.05a12.79,12.79,0,0,1-12.77-12.77V839.64a12.78,12.78,0,0,1,12.77-12.76h93.68a12.78,12.78,0,0,1,12.77,12.76V840a12.78,12.78,0,0,1-12.77,12.76h-78.59a2.34,2.34,0,0,0-2.33,2.34V917.8a3.4,3.4,0,0,0,3.4,3.4h46.93A12.78,12.78,0,0,1,1210.55,934v.32A12.78,12.78,0,0,1,1197.79,947H1150a2.58,2.58,0,0,0-2.57,2.57v78.67A12.78,12.78,0,0,1,1134.7,1041.05Z"/>
        <path class="cls-7" d="M1315.29,1042.63a86.23,86.23,0,0,1-27.73-4.67,79.72,79.72,0,0,1-51-54.69c-6.71-25.67-1.6-52,14-72.27A81.7,81.7,0,0,1,1397,960.93v2.22a10.73,10.73,0,0,1-10.72,10.71H1263.77a1.91,1.91,0,0,0-1.55.78,1.94,1.94,0,0,0-.32,1.74,55.75,55.75,0,0,0,95.75,20.71,12.88,12.88,0,0,1,16.17-2.73l3.62,2.09a9.48,9.48,0,0,1,4.56,6.35,9.27,9.27,0,0,1-1.7,7.46A82.27,82.27,0,0,1,1315.29,1042.63ZM1369.8,949c-.68-11.22-6.61-21.9-16.87-30.29a60.47,60.47,0,0,0-37.64-13.58c-25,0-53,18.61-54.51,43.87Z"/>
        <path class="cls-8" d="M1473,1042.63c-17.13,0-31.83-5.11-42.48-14.77a52.16,52.16,0,0,1-11.55-16.38,11.94,11.94,0,0,1,.91-11.44,12.3,12.3,0,0,1,10.36-5.66H1432a12,12,0,0,1,11,6.84,23.5,23.5,0,0,0,5.37,7.62c7.22,6.41,17.25,7.76,24.39,7.76,1.3,0,2.63,0,3.94-.13,16.15-.88,27-10,27-22.73,0-20.27-12.81-20.83-30.53-21.61-15.77-.7-33.64-1.48-47.13-16.34l-.06-.07A45.49,45.49,0,0,1,1415.32,920c3.63-27.7,23.89-43,57.07-43h.31c26.86,0,40.71,12.91,47.6,23.73a61.28,61.28,0,0,1,4.17,8.2,12.25,12.25,0,0,1-11.33,16.95h-1.61a12.49,12.49,0,0,1-11.31-7.55c-.53-1.19-1.17-2.48-2-3.93-4.92-7.47-13.3-11.25-25.61-11.55-28.65,0-30.57,13.51-31.49,20l0,.19c-.81,6.22.61,11.07,4.48,15.23l.08.09c6.08,7.33,17,8.07,29.58,8.93,10.61.72,22.63,1.53,32.85,6.94,14.38,7.69,21.67,21,21.67,39.48a46.64,46.64,0,0,1-14.55,33.76C1505,1037.39,1490.44,1042.63,1473,1042.63Z"/>
        <path class="cls-9" d="M1591.08,1041.05a14.28,14.28,0,0,1-14.27-14.27v-122h-13.53a12.66,12.66,0,0,1-12.65-12.64,13.22,13.22,0,0,1,13.21-13.2h13V840.27a13.4,13.4,0,0,1,13.39-13.39A12.79,12.79,0,0,1,1603,839.65v39.28h12.81a13.38,13.38,0,0,1,13.37,13.37,12.49,12.49,0,0,1-12.48,12.47H1603v124.38A11.92,11.92,0,0,1,1591.08,1041.05Z"/>
      </g>
      <g>
        <g>
          <path class="cls-10" d="M1151.08,782.79a13.37,13.37,0,0,1-11.46-6.66c-.3-.53-.56-1.09-.82-1.64a8.73,8.73,0,0,0-.58-1.13,3,3,0,0,0-1.64-.32c-.25,0-.49,0-.73,0-.76.08-1.51.21-2.26.35a26.88,26.88,0,0,1-4.75.54h-.47a26.58,26.58,0,0,1-14.71-8.52,24.28,24.28,0,0,1-2.14-4.78c-.26-.72-.51-1.44-.83-2.14a3.87,3.87,0,0,0-1.43-1.91H1109c-.35,0-.7,0-1,.07-.61.06-1.22.11-1.83.11a13.3,13.3,0,0,1-11.76-7.13c-6.8-13.19,9.6-22.55,18.41-27.59,1.64-.94,3.07-1.75,4.08-2.42l27.65-18.16,2.52,1.46c1.42.82,3.09,1.64,4.88,2.47l.37-.63,4.23,2.72.34.23,5,2.41-.45.75c1.6,1.12,3.12,2.15,4.53,3l2.52,1.46-2,33c-.07,1.22-.07,2.85-.06,4.75,0,10.15.07,29-14.75,29.71Z"/>
          <path class="cls-11" d="M1142.21,696.31a17.68,17.68,0,1,0,24.16-6.44A17.68,17.68,0,0,0,1142.21,696.31Z"/>
          <path class="cls-12" d="M1234.28,717.67c-27.64,0-52.33-6.18-73.38-18.36C1106,667.55,1075.19,595,1074.1,495c-.95-87.63,22-182.67,59.76-248,50.75-87.7,141.18-142.18,236-142.18a233.91,233.91,0,0,1,117,31.19c57.86,33.48,98,89.57,113,157.91s3.15,140.46-33.32,203.48c-60.31,104.21-211.61,220.33-332.3,220.33Z"/>
        </g>
        <path class="cls-13" d="M1473.63,281.48c1.12,16.23,12,28.71,24.27,27.86s21.34-14.69,20.22-30.92-12-28.71-24.26-27.86S1472.52,265.24,1473.63,281.48Z"/>
        <path class="cls-13" d="M1489.2,320.73c.43,6.23,4.6,11,9.31,10.7s8.2-5.64,7.77-11.87-4.6-11-9.32-10.7S1488.77,314.5,1489.2,320.73Z"/>
      </g>
      <g>
        <g>
          <path class="cls-14" d="M1157.63,781a12.35,12.35,0,0,1-3.26-.44,13.69,13.69,0,0,1-1.89.14,13,13,0,0,1-6.93-2.1,26.94,26.94,0,0,1-4.28-3.5c-.59-.57-1.19-1.14-1.83-1.66a4.62,4.62,0,0,0-2.43-1.2,5.55,5.55,0,0,0-1.39.71c-.55.34-1.1.68-1.67,1a13.93,13.93,0,0,1-14.3-1.13c-12.55-9.14-1.52-25.76,4.4-34.69,1.12-1.69,2.09-3.15,2.75-4.28l17.55-30.39,2.9.17c.87.05,1.79.07,2.73.07s2.21,0,3.35-.06l0-.74,5.1.53.45.06,5.5-.06-.05.86c2.19.32,4.26.6,6.1.71l2.91.17,13.86,32.23c.52,1.21,1.31,2.77,2.23,4.58,4.83,9.56,13.84,27.36.31,35a13.7,13.7,0,0,1-6.7,1.73h0a13.77,13.77,0,0,1-7.64-2.28c-.53-.36-1-.76-1.55-1.16a7.74,7.74,0,0,0-1.17-.84.69.69,0,0,0-.25,0,5.25,5.25,0,0,0-2.43.92c-.7.44-1.35.94-2,1.43a26.13,26.13,0,0,1-4.66,3A13.3,13.3,0,0,1,1157.63,781Z"/>
          <path class="cls-15" d="M1178.69,701.56A18.86,18.86,0,1,1,1161,681.63,18.87,18.87,0,0,1,1178.69,701.56Z"/>
          <path class="cls-16" d="M1168.26,693.17c-2.64,0-5.32-.08-8-.24-67.41-4-131.47-58.31-180.38-153-42.87-83-66.57-184.5-61.84-264.84C927.16,120.82,1045.05,0,1186.49,0c4.82,0,9.72.14,14.56.43,71.1,4.18,136.14,38.36,183.14,96.24s70.22,132.23,65.67,209.69c-4.63,78.56-39,175-89.7,251.6C1302.48,645.15,1234.32,693.17,1168.26,693.17Z"/>
        </g>
        <path class="cls-13" d="M1146.63,86.34c-7.45,17.36-2.85,36,10.29,41.65s29.83-3.85,37.29-21.21,2.85-36-10.28-41.65S1154.09,69,1146.63,86.34Z"/>
        <path class="cls-13" d="M1141.89,135.14c-2.87,6.67-1.1,13.83,3.95,16s11.45-1.48,14.32-8.15,1.09-13.83-4-16S1144.75,128.48,1141.89,135.14Z"/>
      </g>
      <g>
        <path class="cls-17" d="M1169.27,763.35a11.34,11.34,0,0,1-8.31-3.59c-.34-.36-.65-.76-1-1.15-.1-.14-.19-.27-.3-.4a3.44,3.44,0,0,0-1,.21c-.53.18-1,.4-1.57.63a20.25,20.25,0,0,1-4,1.39,12.48,12.48,0,0,1-2.46.26,10,10,0,0,1-4.67-1.13,10.4,10.4,0,0,1-6.43-3.22,19.89,19.89,0,0,1-2.6-3.4c-.31-.47-.61-1-1-1.39a3.38,3.38,0,0,0-.71-.72l-.47.17c-.48.16-1,.31-1.44.43a11.16,11.16,0,0,1-2.58.3,11.47,11.47,0,0,1-8.61-3.92c-8.12-9.51,3-19.92,9-25.52,1-.95,1.93-1.79,2.6-2.5l18-19.06,2.79.84c.91.27,1.94.52,3,.76l.22-.73,5,1.83,5.12,1.17-.23.77c1.07.42,2.08.79,3,1.07l2.79.84,4.49,25.86c.16,1,.46,2.17.78,3.53,1.9,8,5.44,22.83-6.58,26.25A10.83,10.83,0,0,1,1169.27,763.35Z"/>
        <path class="cls-18" d="M1149.52,698.48a13.68,13.68,0,1,0,17-9.14A13.68,13.68,0,0,0,1149.52,698.48Z"/>
        <path class="cls-19" d="M1193.84,702.78a104,104,0,0,1-30-4.34c-47.34-14.28-83.69-63.73-102.36-139.24-16.32-66-15.94-141.83,1-197.92,27.48-91,107.87-154.63,195.51-154.63a179.83,179.83,0,0,1,52,7.67c102.66,31,158.67,147.3,124.87,259.31-15.24,50.53-50.72,107.41-94.9,152.17-49,49.64-100.85,77-146,77Z"/>
        <path class="cls-13" d="M1324.47,332.26c1.3,21.26,15.4,37.7,31.49,36.72s28.08-19,26.79-40.28-15.4-37.7-31.49-36.72S1323.17,311,1324.47,332.26Z"/>
        <path class="cls-13" d="M1343.63,383.48c.5,8.16,5.91,14.48,12.09,14.1s10.78-7.3,10.28-15.47-5.91-14.48-12.09-14.1S1343.13,375.31,1343.63,383.48Z"/>
      </g>
    </g>
  </g>
</svg>
