<svg xmlns="http://www.w3.org/2000/svg" xmlns:xlink="http://www.w3.org/1999/xlink" viewBox="0 0 1593.99 806.66">
  <defs>
    <style>
      .cls-1 {
        fill: url(#Gradiente_sem_nome_100);
      }

      .cls-2 {
        fill: #fff;
      }

      .cls-3 {
        fill: url(#Gradiente_sem_nome_103);
      }

      .cls-4 {
        fill: url(#Gradiente_sem_nome_103-2);
      }

      .cls-5 {
        fill: url(#Gradiente_sem_nome_103-3);
      }

      .cls-6 {
        fill: url(#Gradiente_sem_nome_103-4);
      }

      .cls-7 {
        fill: url(#Gradiente_sem_nome_103-5);
      }

      .cls-8 {
        fill: url(#Gradiente_sem_nome_103-6);
      }

      .cls-9 {
        fill: url(#Gradiente_sem_nome_103-7);
      }

      .cls-10 {
        fill: url(#Gradiente_sem_nome_103-8);
      }

      .cls-11 {
        fill: #ae1e53;
      }

      .cls-12 {
        fill: url(#Gradiente_sem_nome_131);
      }

      .cls-13 {
        fill: url(#Gradiente_sem_nome_140);
      }

      .cls-14 {
        fill: url(#Gradiente_sem_nome_142);
      }

      .cls-15 {
        fill: url(#Gradiente_sem_nome_142-2);
      }

      .cls-16 {
        fill: url(#Gradiente_sem_nome_142-3);
      }

      .cls-17 {
        fill: url(#Gradiente_sem_nome_52);
      }

      .cls-18 {
        fill: url(#Gradiente_sem_nome_68);
      }

      .cls-19 {
        fill: url(#Gradiente_sem_nome_52-2);
      }

      .cls-20 {
        fill: url(#Gradiente_sem_nome_68-2);
      }

      .cls-21 {
        fill: url(#Gradiente_sem_nome_55);
      }

      .cls-22 {
        fill: url(#Gradiente_sem_nome_65);
      }

      .cls-23 {
        fill: url(#Gradiente_sem_nome_52-3);
      }

      .cls-24 {
        fill: url(#Gradiente_sem_nome_75);
      }

      .cls-25 {
        fill: url(#Gradiente_sem_nome_81);
      }

      .cls-26 {
        fill: url(#Gradiente_sem_nome_72);
      }

      .cls-27 {
        fill: url(#Gradiente_sem_nome_140-2);
      }

      .cls-28 {
        fill: url(#Gradiente_sem_nome_52-4);
      }

      .cls-29 {
        fill: url(#Gradiente_sem_nome_103-9);
      }

      .cls-30 {
        fill: url(#Gradiente_sem_nome_77);
      }

      .cls-31 {
        fill: url(#Gradiente_sem_nome_79);
      }

      .cls-32 {
        fill: url(#Gradiente_sem_nome_68-3);
      }
    </style>
    <radialGradient id="Gradiente_sem_nome_100" data-name="Gradiente sem nome 100" cx="-18.98" cy="416.04" r="541.95" gradientUnits="userSpaceOnUse">
      <stop offset="0" stop-color="#ae1e53"/>
      <stop offset="0.28" stop-color="#b22358"/>
      <stop offset="0.42" stop-color="#b6285d"/>
      <stop offset="0.47" stop-color="#c3376d"/>
      <stop offset="0.58" stop-color="#e56096"/>
      <stop offset="0.6" stop-color="#ed699f"/>
      <stop offset="1" stop-color="#ed699f"/>
    </radialGradient>
    <radialGradient id="Gradiente_sem_nome_103" data-name="Gradiente sem nome 103" cx="293.54" cy="424.79" r="307.56" gradientUnits="userSpaceOnUse">
      <stop offset="0" stop-color="#ae1e53"/>
      <stop offset="0.21" stop-color="#b22358"/>
      <stop offset="0.46" stop-color="#be3166"/>
      <stop offset="0.72" stop-color="#d2487e"/>
      <stop offset="1" stop-color="#ed699f"/>
      <stop offset="1" stop-color="#ed699f"/>
    </radialGradient>
    <radialGradient id="Gradiente_sem_nome_103-2" cx="613.7" cy="576.78" r="109.74" xlink:href="#Gradiente_sem_nome_103"/>
    <radialGradient id="Gradiente_sem_nome_103-3" cx="792.12" cy="605.47" r="74.46" xlink:href="#Gradiente_sem_nome_103"/>
    <radialGradient id="Gradiente_sem_nome_103-4" cx="918.78" cy="576.6" r="91.7" xlink:href="#Gradiente_sem_nome_103"/>
    <radialGradient id="Gradiente_sem_nome_103-5" cx="1082.54" cy="576.6" r="98.54" xlink:href="#Gradiente_sem_nome_103"/>
    <radialGradient id="Gradiente_sem_nome_103-6" cx="1234.63" cy="607.27" r="92.87" xlink:href="#Gradiente_sem_nome_103"/>
    <radialGradient id="Gradiente_sem_nome_103-7" cx="1413.22" cy="606.01" r="81.01" xlink:href="#Gradiente_sem_nome_103"/>
    <radialGradient id="Gradiente_sem_nome_103-8" cx="1546.84" cy="576.6" r="91.7" xlink:href="#Gradiente_sem_nome_103"/>
    <linearGradient id="Gradiente_sem_nome_131" data-name="Gradiente sem nome 131" x1="-594.67" y1="1103.19" x2="-523.17" y2="1103.19" gradientTransform="matrix(0.76, -0.65, 0.65, 0.76, 1040.28, -753.73)" gradientUnits="userSpaceOnUse">
      <stop offset="0" stop-color="#ed699f"/>
      <stop offset="0.22" stop-color="#db548a"/>
      <stop offset="0.68" stop-color="#ae1e53"/>
      <stop offset="0.68" stop-color="#ae1e53"/>
      <stop offset="0.76" stop-color="#bb2d62"/>
      <stop offset="0.92" stop-color="#db548a"/>
      <stop offset="1" stop-color="#ed699f"/>
    </linearGradient>
    <linearGradient id="Gradiente_sem_nome_140" data-name="Gradiente sem nome 140" x1="1990.62" y1="-1829.71" x2="2062.11" y2="-1829.71" gradientTransform="translate(-1874.88 -326.35) rotate(59.47)" gradientUnits="userSpaceOnUse">
      <stop offset="0" stop-color="#febb64"/>
      <stop offset="0.31" stop-color="#f7941d"/>
      <stop offset="0.44" stop-color="#f79722"/>
      <stop offset="0.6" stop-color="#f99e30"/>
      <stop offset="0.77" stop-color="#fbab48"/>
      <stop offset="0.95" stop-color="#febd69"/>
      <stop offset="1" stop-color="#ffc373"/>
    </linearGradient>
    <linearGradient id="Gradiente_sem_nome_142" data-name="Gradiente sem nome 142" x1="0.78" y1="1071.87" x2="72.27" y2="1071.87" gradientTransform="matrix(0.86, -0.51, 0.51, 0.86, 887.17, -518.65)" gradientUnits="userSpaceOnUse">
      <stop offset="0" stop-color="#9ce8ff"/>
      <stop offset="0.06" stop-color="#83defc"/>
      <stop offset="0.2" stop-color="#42c6f6"/>
      <stop offset="0.32" stop-color="#00adef"/>
      <stop offset="0.42" stop-color="#05aff0"/>
      <stop offset="0.53" stop-color="#13b4f1"/>
      <stop offset="0.65" stop-color="#2bbdf3"/>
      <stop offset="0.77" stop-color="#4ccaf7"/>
      <stop offset="0.9" stop-color="#76dafb"/>
      <stop offset="1" stop-color="#9ce8ff"/>
    </linearGradient>
    <linearGradient id="Gradiente_sem_nome_142-2" x1="155.79" y1="116.38" x2="227.28" y2="116.38" gradientTransform="matrix(1, 0, 0, 1, 0, 0)" xlink:href="#Gradiente_sem_nome_142"/>
    <linearGradient id="Gradiente_sem_nome_142-3" x1="424.99" y1="650.44" x2="496.48" y2="650.44" gradientTransform="matrix(1, 0, 0, 1, 0, 0)" xlink:href="#Gradiente_sem_nome_142"/>
    <radialGradient id="Gradiente_sem_nome_52" data-name="Gradiente sem nome 52" cx="563.68" cy="287.91" r="36.59" gradientUnits="userSpaceOnUse">
      <stop offset="0" stop-color="#9ce8ff"/>
      <stop offset="0.13" stop-color="#83defc"/>
      <stop offset="0.42" stop-color="#42c6f6"/>
      <stop offset="0.68" stop-color="#00adef"/>
      <stop offset="0.73" stop-color="#05aff0"/>
      <stop offset="0.78" stop-color="#13b4f1"/>
      <stop offset="0.83" stop-color="#2bbdf3"/>
      <stop offset="0.89" stop-color="#4ccaf7"/>
      <stop offset="0.95" stop-color="#76dafb"/>
      <stop offset="1" stop-color="#9ce8ff"/>
    </radialGradient>
    <radialGradient id="Gradiente_sem_nome_68" data-name="Gradiente sem nome 68" cx="1200.53" cy="445.14" r="33.74" gradientUnits="userSpaceOnUse">
      <stop offset="0" stop-color="#ffc373"/>
      <stop offset="0.23" stop-color="#fdb55a"/>
      <stop offset="0.68" stop-color="#f7941d"/>
      <stop offset="0.74" stop-color="#f79722"/>
      <stop offset="0.82" stop-color="#f99e30"/>
      <stop offset="0.9" stop-color="#fbab48"/>
      <stop offset="0.98" stop-color="#febd69"/>
      <stop offset="1" stop-color="#ffc373"/>
    </radialGradient>
    <radialGradient id="Gradiente_sem_nome_52-2" cx="1109.35" cy="688.29" r="26.74" xlink:href="#Gradiente_sem_nome_52"/>
    <radialGradient id="Gradiente_sem_nome_68-2" cx="497.13" cy="462.51" r="33.74" xlink:href="#Gradiente_sem_nome_68"/>
    <linearGradient id="Gradiente_sem_nome_55" data-name="Gradiente sem nome 55" x1="-956.84" y1="-589.41" x2="-959.14" y2="-628.57" gradientTransform="matrix(-0.87, -0.5, -0.5, 0.87, -400.88, 454.38)" gradientUnits="userSpaceOnUse">
      <stop offset="0.32" stop-color="#00adef"/>
      <stop offset="0.58" stop-color="#42c6f6"/>
      <stop offset="0.87" stop-color="#83defc"/>
      <stop offset="1" stop-color="#9ce8ff"/>
    </linearGradient>
    <radialGradient id="Gradiente_sem_nome_65" data-name="Gradiente sem nome 65" cx="-956.88" cy="-632.71" r="11.27" gradientTransform="matrix(-0.87, -0.5, -0.5, 0.87, -400.88, 454.38)" gradientUnits="userSpaceOnUse">
      <stop offset="0" stop-color="#9ce8ff"/>
      <stop offset="0.34" stop-color="#51ccf7"/>
      <stop offset="0.68" stop-color="#00adef"/>
    </radialGradient>
    <radialGradient id="Gradiente_sem_nome_52-3" cx="-980.28" cy="-881.18" r="284.58" gradientTransform="matrix(-0.87, -0.5, -0.5, 0.87, -400.88, 454.38)" xlink:href="#Gradiente_sem_nome_52"/>
    <linearGradient id="Gradiente_sem_nome_75" data-name="Gradiente sem nome 75" x1="2606.88" y1="310.2" x2="2604.45" y2="268.85" gradientTransform="matrix(1, 0.06, -0.06, 1, -1842.56, -33.75)" gradientUnits="userSpaceOnUse">
      <stop offset="0.32" stop-color="#ae1e53"/>
      <stop offset="0.75" stop-color="#d85086"/>
      <stop offset="1" stop-color="#ed699f"/>
    </linearGradient>
    <radialGradient id="Gradiente_sem_nome_81" data-name="Gradiente sem nome 81" cx="2606.85" cy="264.18" r="12.02" gradientTransform="matrix(1, 0.06, -0.06, 1, -1842.56, -33.75)" gradientUnits="userSpaceOnUse">
      <stop offset="0" stop-color="#ed699f"/>
      <stop offset="0.67" stop-color="#af2055"/>
      <stop offset="0.68" stop-color="#ae1e53"/>
    </radialGradient>
    <radialGradient id="Gradiente_sem_nome_72" data-name="Gradiente sem nome 72" cx="2581.92" cy="-0.81" r="303.27" gradientTransform="matrix(1, 0.06, -0.06, 1, -1842.56, -33.75)" gradientUnits="userSpaceOnUse">
      <stop offset="0" stop-color="#ed699f"/>
      <stop offset="0.25" stop-color="#d85086"/>
      <stop offset="0.68" stop-color="#ae1e53"/>
      <stop offset="0.75" stop-color="#b22358"/>
      <stop offset="0.83" stop-color="#be3166"/>
      <stop offset="0.91" stop-color="#d2487e"/>
      <stop offset="1" stop-color="#ed699f"/>
      <stop offset="1" stop-color="#ed699f"/>
    </radialGradient>
    <linearGradient id="Gradiente_sem_nome_140-2" x1="744.81" y1="-4228.07" x2="816.31" y2="-4228.07" gradientTransform="translate(-2668.53 -2006.46) rotate(112.17)" xlink:href="#Gradiente_sem_nome_140"/>
    <radialGradient id="Gradiente_sem_nome_52-4" cx="701.2" cy="28.32" r="26.74" xlink:href="#Gradiente_sem_nome_52"/>
    <radialGradient id="Gradiente_sem_nome_103-9" cx="1044.22" cy="188.97" r="26.74" xlink:href="#Gradiente_sem_nome_103"/>
    <linearGradient id="Gradiente_sem_nome_77" data-name="Gradiente sem nome 77" x1="-531.29" y1="367.5" x2="-533.14" y2="336.01" gradientTransform="matrix(-0.96, -0.29, -0.29, 0.96, 333.75, -87.73)" gradientUnits="userSpaceOnUse">
      <stop offset="0.32" stop-color="#f7941d"/>
      <stop offset="0.77" stop-color="#fdb55a"/>
      <stop offset="1" stop-color="#ffc373"/>
    </linearGradient>
    <radialGradient id="Gradiente_sem_nome_79" data-name="Gradiente sem nome 79" cx="-531.35" cy="333.43" r="8.72" gradientTransform="matrix(-0.96, -0.29, -0.29, 0.96, 333.75, -87.73)" gradientUnits="userSpaceOnUse">
      <stop offset="0" stop-color="#ffc373"/>
      <stop offset="0.59" stop-color="#f89a29"/>
      <stop offset="0.68" stop-color="#f7941d"/>
    </radialGradient>
    <radialGradient id="Gradiente_sem_nome_68-3" cx="-549.56" cy="140.96" r="221.17" gradientTransform="matrix(-0.96, -0.29, -0.29, 0.96, 333.75, -87.73)" xlink:href="#Gradiente_sem_nome_68"/>
  </defs>
  <title>logoAtivo 6vetor</title>
  <g id="Camada_2" data-name="Camada 2">
    <g id="Camada_1-2" data-name="Camada 1">
      <g>
        <path class="cls-1" d="M113.52,698.4a79.66,79.66,0,0,1-26-4.24,88.82,88.82,0,0,1-24.78-12A74.39,74.39,0,0,1,44,662.58c-5.31-8-9-14-11.34-18.32s-5.82-11.79-10.42-22.15C13,601.83,6.8,561.05,3.93,500.94c-2.87-59.85-1.42-128,4.32-202.5s15.61-139.31,29.38-192.7c3-12.12,10.25-21.5,21.45-27.85A45,45,0,0,1,81.49,71.8a49.71,49.71,0,0,1,13.23,1.88h.92l.39.13a50.16,50.16,0,0,1,25.83,19,39.77,39.77,0,0,1,6.88,30.29C92.45,342.58,87.89,523.09,115.16,659.73,179,629.73,236.09,591.47,284.94,546a12.21,12.21,0,0,1,8.84-3.77,16.78,16.78,0,0,1,6.71,1.55,11.94,11.94,0,0,1,8,9.09,12.64,12.64,0,0,1-3.68,12.25A954.73,954.73,0,0,1,192.46,665.33c-18.54,14.47-34.46,23.89-47.32,28A108.92,108.92,0,0,1,113.52,698.4Z"/>
        <path class="cls-2" d="M81.49,74.3a46.9,46.9,0,0,1,12.88,1.88h.87a47.52,47.52,0,0,1,24.57,18.11,37.19,37.19,0,0,1,6.47,28.45q-55.2,333.67-12.94,540.61,98.29-45.69,173.31-115.54a9.79,9.79,0,0,1,7.13-3.1,14.34,14.34,0,0,1,5.8,1.38,9.43,9.43,0,0,1,6.47,7.32,10.09,10.09,0,0,1-3,9.92,949.26,949.26,0,0,1-112.09,100q-27.6,21.54-46.56,27.59a105.64,105.64,0,0,1-30.86,5,76.89,76.89,0,0,1-25.18-4.1A86.06,86.06,0,0,1,64.2,680.16a71.33,71.33,0,0,1-18.11-19q-7.76-11.64-11.21-18.11t-10.34-22Q10.74,590.92,6.43,500.82t4.31-202.19q8.61-112.06,29.32-192.27,4.3-17.23,20.26-26.3A42.28,42.28,0,0,1,81.49,74.3m0-5a47.46,47.46,0,0,0-23.64,6.41C46,82.42,38.41,92.32,35.2,105.15c-13.8,53.5-23.71,118.48-29.44,193.1s-7.2,142.86-4.32,202.81c2.92,61.25,9,101.19,18.54,122.09,4.68,10.55,8.11,17.84,10.49,22.29S36.58,655.93,41.93,664a76.59,76.59,0,0,0,19.38,20.28,91.32,91.32,0,0,0,25.47,12.31,82.05,82.05,0,0,0,26.74,4.35,111.12,111.12,0,0,0,32.32-5.18h.06c13.32-4.25,29-13.53,48.1-28.4A958,958,0,0,0,306.61,566.82a15,15,0,0,0,4.31-14.53,14.37,14.37,0,0,0-9.52-10.87,19.37,19.37,0,0,0-7.62-1.71,14.83,14.83,0,0,0-10.6,4.5C235.27,588.8,179.38,626.43,117,656.1,90.47,520.14,95.24,341,131.21,123.56a42.21,42.21,0,0,0-7.3-32.14,52.62,52.62,0,0,0-27.09-20l-.77-.26h-1A52.07,52.07,0,0,0,81.49,69.3Z"/>
      </g>
      <g>
        <path class="cls-3" d="M325.52,691a99.81,99.81,0,0,1-31.66-4.92l-.09,0c-17.25-6.53-29.62-18.3-36.77-35l0-.11c-2.13-5.68-.63-10.56,4.34-14.12a13,13,0,0,1,7.91-3.1c3.43,0,6.56,1.79,9.31,5.32a57,57,0,0,0,28.08,18.55A73.13,73.13,0,0,0,328.26,661a71.09,71.09,0,0,0,13.35-1.28,77.85,77.85,0,0,0,35.47-17.54A90.6,90.6,0,0,0,401,609.43c6.06-13.77,7.47-26.85,4.19-38.87-3.89-16.63-19.5-34.4-46.43-52.91-28.69-19.5-53.9-39.75-74.9-60.2s-37.25-39.57-48.23-56.92a207.12,207.12,0,0,1-24.43-53.68c-5.21-18.24-8.14-34-8.71-46.7a148.39,148.39,0,0,1,4.37-41.22c3.48-14.48,6.86-25.77,10-33.56a231.51,231.51,0,0,1,12.64-25.71c26.55-50.23,67.58-87.45,121.91-110.58A148.12,148.12,0,0,1,408.05,77.7a158.88,158.88,0,0,1,36.34,4.35,91,91,0,0,1,23.89,8.85,119.19,119.19,0,0,1,21.14,14.54,156.49,156.49,0,0,1,18,18.4,115.31,115.31,0,0,1,14.1,21.6,151.79,151.79,0,0,1,9.21,22.8c10.47,37.24,6.37,78.4-12.16,122.42-9.79,24.75-27.86,55.66-53.68,91.81a22.86,22.86,0,0,1-14.41,10.09,34,34,0,0,1-8.26,1.06,30.11,30.11,0,0,1-9.51-1.54l-.56-.19-.93-.93c-6.16-2.6-10.54-7.38-13-14.2a24.53,24.53,0,0,1,1-20.08c15.37-29,28.06-62.2,37.76-98.67,6.77-27.11,9.07-50.89,6.83-70.64-1.15-9.12-2-15.47-2.57-18.85s-1.85-8.92-3.84-16.59c-1.89-7.26-4.84-12.8-8.77-16.47a43.63,43.63,0,0,0-14.68-8.81c-25.55.24-58.44,21.15-97.77,62.17-29.38,30.5-46.85,64.55-51.92,101.21-2.82,18-.53,38.76,6.8,61.84s17.3,42,29.67,56c10.2,11.35,26.1,27.1,47.25,46.82s36.64,34.78,45.81,44.52c20.86,22.59,34.09,42,39.35,57.82l0,.12A89.07,89.07,0,0,1,454,602,102.24,102.24,0,0,1,433.69,643a129.38,129.38,0,0,1-34.76,28.62,139.63,139.63,0,0,1-45.21,16.24A137.39,137.39,0,0,1,325.52,691Z"/>
        <path class="cls-2" d="M408.05,80.2a155.5,155.5,0,0,1,35.76,4.28,87.92,87.92,0,0,1,23.28,8.63,116,116,0,0,1,20.7,14.22,153.74,153.74,0,0,1,17.67,18.11,112.23,112.23,0,0,1,13.8,21.12,148,148,0,0,1,9,22.42q15.53,55.19-12.07,120.71-14.67,37.08-53.46,91.39a20.31,20.31,0,0,1-12.93,9.05,31.22,31.22,0,0,1-7.66,1,27.41,27.41,0,0,1-8.72-1.41l-.86-.87q-8.64-3.43-12.08-12.93a22,22,0,0,1,.87-18.11q23.28-44,37.93-99.15,10.35-41.38,6.9-71.56-1.74-13.78-2.59-19t-3.87-16.82q-3-11.62-9.49-17.67a46.37,46.37,0,0,0-15.95-9.48q-39.68,0-100,62.94-44.83,46.56-52.59,102.6-4.32,27.6,6.9,62.94t30.17,56.9q15.52,17.27,47.43,47t45.69,44.41q31.05,33.63,38.8,56.91a86,86,0,0,1,.86,43.54,99.2,99.2,0,0,1-19.83,40.09,126.38,126.38,0,0,1-34.05,28,136.67,136.67,0,0,1-44.41,16,134.44,134.44,0,0,1-27.76,3.07,97.11,97.11,0,0,1-30.87-4.79q-25-9.48-35.35-33.63-2.58-6.89,3.45-11.21a10.73,10.73,0,0,1,6.46-2.64c2.63,0,5.07,1.46,7.34,4.37q11.19,13.8,29.31,19.4a75.44,75.44,0,0,0,22.4,3.47,73.32,73.32,0,0,0,13.81-1.32,80,80,0,0,0,36.65-18.11,92.5,92.5,0,0,0,24.57-33.62q9.48-21.54,4.31-40.52-6-25.87-47.42-54.32-43.12-29.31-74.58-59.93t-47.85-56.47a203.46,203.46,0,0,1-24.15-53Q205.85,319,205,300a145.7,145.7,0,0,1,4.31-40.53q5.18-21.54,9.92-33.19a226.82,226.82,0,0,1,12.5-25.44q39.64-75,120.71-109.5A144.92,144.92,0,0,1,408.05,80.2m0-5a150.44,150.44,0,0,0-57.53,11.56h-.06c-27.41,11.67-51.67,27-72.1,45.52a240.8,240.8,0,0,0-51,66.19,232.81,232.81,0,0,0-12.74,25.94c-3.27,8-6.59,19.11-10.15,33.91A151.17,151.17,0,0,0,200,300.26c.58,12.94,3.54,28.85,8.81,47.28a209.1,209.1,0,0,0,24.72,54.32c11.09,17.52,27.44,36.83,48.59,57.39s46.43,40.89,75.26,60.47C383.74,537.86,399,555.13,402.73,571l0,.09,0,.09c3.12,11.45,1.75,24-4.07,37.19a88,88,0,0,1-23.26,31.86,75.5,75.5,0,0,1-34.35,17,69,69,0,0,1-12.84,1.22,70.49,70.49,0,0,1-20.92-3.25,54.66,54.66,0,0,1-26.88-17.74c-3.24-4.14-7-6.25-11.25-6.25a15.59,15.59,0,0,0-9.45,3.63c-5.84,4.23-7.66,10.25-5.14,17l0,.1.05.11c7.42,17.32,20.26,29.55,38.17,36.33l.09,0,.1,0a102.42,102.42,0,0,0,32.45,5,140.16,140.16,0,0,0,28.72-3.16,142.34,142.34,0,0,0,45.94-16.52,132.09,132.09,0,0,0,35.39-29.14l0,0,0,0a104.58,104.58,0,0,0,20.81-42.09,91.44,91.44,0,0,0-.91-46l0-.12,0-.12C450,539.9,437,520.69,415.59,497.54l0,0,0,0c-9.21-9.78-24.66-24.8-45.92-44.63-21.09-19.66-36.93-35.35-47.1-46.66-12.13-13.77-21.93-32.31-29.15-55.09s-9.47-43.12-6.72-60.66v-.09c5-36.12,22.25-69.7,51.25-99.81,38.61-40.28,70.74-60.93,95.53-61.41a41.21,41.21,0,0,1,13.42,8.14c3.57,3.34,6.29,8.48,8.06,15.27,2,7.59,3.23,13.11,3.78,16.39s1.41,9.64,2.56,18.73c2.2,19.44-.08,42.9-6.78,69.72-9.64,36.27-22.26,69.26-37.51,98.06l0,.05,0,.05a26.9,26.9,0,0,0-1.09,22.06c2.65,7.33,7.33,12.52,13.92,15.45l.17.17.83.84,1.13.37a32.44,32.44,0,0,0,10.3,1.67,36.24,36.24,0,0,0,8.88-1.14,25.24,25.24,0,0,0,15.86-11.11c25.91-36.27,44.05-67.32,53.94-92.29,18.74-44.53,22.86-86.24,12.25-123.95v-.06l0-.06a153.44,153.44,0,0,0-9.36-23.18,117.22,117.22,0,0,0-14.41-22.07,158.55,158.55,0,0,0-18.26-18.71,121.56,121.56,0,0,0-21.59-14.84,93.53,93.53,0,0,0-24.56-9.1,160.56,160.56,0,0,0-36.86-4.41Z"/>
      </g>
      <g>
        <g>
          <path class="cls-4" d="M695.29,698.36a14.87,14.87,0,0,1-14-9.93l-27.36-77.95H573.54l-27.3,77.75A15.14,15.14,0,0,1,532,698.36a14.72,14.72,0,0,1-13.88-19.58l72.61-206.92a24.92,24.92,0,0,1,23.49-16.66A23.65,23.65,0,0,1,636.47,471l72.84,207.58a14.86,14.86,0,0,1-14,19.78Zm-51-115.83-30.55-87.48-30.55,87.48Z"/>
          <path class="cls-2" d="M614.18,457.7a21.12,21.12,0,0,1,19.93,14.12L707,679.41a12.35,12.35,0,1,1-23.31,8.19L655.69,608H571.77L543.89,687.4A12.64,12.64,0,0,1,532,695.86h0a12.2,12.2,0,0,1-11.52-16.25l72.61-206.92a22.39,22.39,0,0,1,21.13-15h0M579.66,585H647.8l-34.07-97.56L579.66,585M614.18,452.7A27.44,27.44,0,0,0,588.33,471L515.72,678A17.21,17.21,0,0,0,532,700.86a17.65,17.65,0,0,0,16.64-11.8L575.31,613h76.84l26.77,76.28a17.36,17.36,0,0,0,32.75-11.51L638.83,470.17a26.15,26.15,0,0,0-24.65-17.47ZM586.7,580l27-77.4,27,77.4Z"/>
        </g>
        <g>
          <path class="cls-5" d="M757.28,698.36a14.8,14.8,0,0,1-14.78-14.78V580.72c0-26.24,15.06-50.35,38.37-61.43l.67-.34a70.15,70.15,0,0,1,50.26-3.12,14.18,14.18,0,0,1,2.82,25.82,18.22,18.22,0,0,1-9.07,2.47,16.72,16.72,0,0,1-4.64-.65A36,36,0,0,0,810.64,542a39,39,0,0,0-7,.66c-18.37,3.37-31.7,19.87-31.7,39.25V683.74A14.63,14.63,0,0,1,757.28,698.36Z"/>
          <path class="cls-2" d="M810.64,515.09a66.87,66.87,0,0,1,20.4,3.12,11.68,11.68,0,0,1,2.34,21.27,15.78,15.78,0,0,1-7.83,2.14,14.25,14.25,0,0,1-3.94-.55,38.77,38.77,0,0,0-11-1.59,41.48,41.48,0,0,0-7.5.7c-19.8,3.63-33.75,21.59-33.75,41.71V683.74a12.12,12.12,0,0,1-12.11,12.12A12.28,12.28,0,0,1,745,683.58V580.73a65.32,65.32,0,0,1,37-59.19l.71-.36a66.56,66.56,0,0,1,28-6.09m0-5a71.63,71.63,0,0,0-30.06,6.55l-.08,0-.08,0-.67.33a69.42,69.42,0,0,0-28.7,25.48,71,71,0,0,0-11,38.2V683.58a17.2,17.2,0,1,0,34.39.16V581.89c0-18.17,12.47-33.64,29.65-36.79a35.9,35.9,0,0,1,6.6-.62,33.63,33.63,0,0,1,9.57,1.39,19.14,19.14,0,0,0,5.34.75,20.86,20.86,0,0,0,10.32-2.8,16.68,16.68,0,0,0-3.31-30.37,72.08,72.08,0,0,0-21.92-3.36Z"/>
        </g>
        <g>
          <path class="cls-6" d="M919.05,698.36a15.17,15.17,0,0,1-15.15-15.15V543.41H889.07a15,15,0,0,1-14.93-14.93A14.47,14.47,0,0,1,888.59,514H903.9V470.13a15.31,15.31,0,0,1,15.29-15.29,14.48,14.48,0,0,1,14.46,14.47V514H948.8a14.7,14.7,0,0,1-.14,29.39h-15V683.75A14.62,14.62,0,0,1,919.05,698.36Z"/>
          <path class="cls-2" d="M919.19,457.34a12,12,0,0,1,12,12v47.21H948.8a12.13,12.13,0,0,1,12.12,12.13h0a12.26,12.26,0,0,1-12.26,12.26H931.15V683.75a12.1,12.1,0,0,1-12.1,12.11h0a12.64,12.64,0,0,1-12.64-12.65V540.91H889.07a12.43,12.43,0,0,1-12.43-12.43h0a12,12,0,0,1,12-12h17.82V470.13a12.79,12.79,0,0,1,12.78-12.79h0m0-5a17.8,17.8,0,0,0-17.78,17.79v41.39H888.59a17,17,0,0,0-17,17,17.45,17.45,0,0,0,17.43,17.43h12.34v137.3a17.66,17.66,0,0,0,17.64,17.65,17.13,17.13,0,0,0,17.1-17.11V545.91h12.51a17.2,17.2,0,0,0,.14-34.39H936.15V469.31a17,17,0,0,0-17-17Z"/>
        </g>
        <g>
          <path class="cls-7" d="M1029.28,698.36a14.54,14.54,0,0,1-14.52-14.52V469.36a14.53,14.53,0,0,1,14.52-14.52H1135.8a14.53,14.53,0,0,1,14.51,14.52v.36a14.53,14.53,0,0,1-14.51,14.51h-89.36a2.65,2.65,0,0,0-2.65,2.65v71.34a3.87,3.87,0,0,0,3.86,3.87H1101a14.53,14.53,0,0,1,14.51,14.51V577A14.53,14.53,0,0,1,1101,591.47h-54.3a2.93,2.93,0,0,0-2.92,2.93v89.44A14.54,14.54,0,0,1,1029.28,698.36Z"/>
          <path class="cls-2" d="M1135.8,457.34a12,12,0,0,1,12,12v.36a12,12,0,0,1-12,12h-89.36a5.16,5.16,0,0,0-5.15,5.15v71.34a6.36,6.36,0,0,0,6.36,6.36H1101a12,12,0,0,1,12,12V577a12,12,0,0,1-12,12h-54.3a5.43,5.43,0,0,0-5.42,5.43v89.44a12,12,0,0,1-12,12h0a12,12,0,0,1-12-12V469.36a12,12,0,0,1,12-12H1135.8m0-5H1029.28a17,17,0,0,0-17,17V683.84a17,17,0,1,0,34,0V594.4a.42.42,0,0,1,.42-.43H1101a17,17,0,0,0,17-17v-.36a17,17,0,0,0-17-17h-53.36a1.36,1.36,0,0,1-1.36-1.36V486.88a.15.15,0,0,1,.15-.15h89.36a17,17,0,0,0,17-17v-.36a17,17,0,0,0-17-17Z"/>
        </g>
        <g>
          <path class="cls-8" d="M1234.62,700.15a97.89,97.89,0,0,1-31.53-5.31,90.6,90.6,0,0,1-58-62.17c-7.64-29.19-1.83-59.14,16-82.18a92.89,92.89,0,0,1,166.48,56.77v2.52A12.21,12.21,0,0,1,1315.31,622H1176a2.17,2.17,0,0,0-1.76.89,2.23,2.23,0,0,0-.37,2,63.4,63.4,0,0,0,108.87,23.55,14.61,14.61,0,0,1,18.39-3.1l4.11,2.37a10.76,10.76,0,0,1,5.19,7.22,10.55,10.55,0,0,1-1.93,8.48A93.48,93.48,0,0,1,1234.62,700.15Zm62-106.5c-.78-12.75-7.53-24.9-19.18-34.44a68.8,68.8,0,0,0-42.81-15.44c-28.47,0-60.22,21.16-62,49.88Z"/>
          <path class="cls-2" d="M1234.62,516.88A90.23,90.23,0,0,1,1325,607.26v2.52a9.73,9.73,0,0,1-9.69,9.68H1176a4.74,4.74,0,0,0-4.53,6.07A65.89,65.89,0,0,0,1284.66,650a12.13,12.13,0,0,1,15.25-2.57l4.12,2.37a8.2,8.2,0,0,1,2.51,12,90.4,90.4,0,0,1-71.92,35.82,95.74,95.74,0,0,1-30.73-5.17A87.63,87.63,0,0,1,1147.47,632c-16-61.08,29.31-115.15,87.15-115.15m-64.57,79.27h129.12c0-30.49-32.28-54.88-64.55-54.88-31.93,0-64.57,24.39-64.57,54.88h0m64.57-84.27A94.79,94.79,0,0,0,1159,549c-18.26,23.65-24.24,54.38-16.4,84.33a92.59,92.59,0,0,0,59.65,63.91,100.56,100.56,0,0,0,32.33,5.44,93.86,93.86,0,0,0,43.06-10.35,96.63,96.63,0,0,0,32.84-27.44,13,13,0,0,0,2.39-10.49,13.29,13.29,0,0,0-6.39-8.89l-4.11-2.37a17.12,17.12,0,0,0-21.53,3.63,60.89,60.89,0,0,1-104.48-22.28h138.91A14.71,14.71,0,0,0,1330,609.78v-2.51a95.24,95.24,0,0,0-95.38-95.39Zm-59.23,79.27c1.47-11,7.78-21.55,18.13-30a64.35,64.35,0,0,1,82.31,0c10.29,8.42,16.56,18.92,18,30Z"/>
        </g>
        <g>
          <path class="cls-9" d="M1414,700.15c-19.49,0-36.19-5.81-48.31-16.79a59.55,59.55,0,0,1-13.13-18.62,13.62,13.62,0,0,1,1-13,14,14,0,0,1,11.78-6.43h2a13.62,13.62,0,0,1,12.48,7.77,26.6,26.6,0,0,0,6.11,8.66c8.21,7.3,19.62,8.83,27.73,8.83h0c1.48,0,3,0,4.48-.15,18.36-1,30.67-11.39,30.67-25.84,0-23-14.56-23.69-34.72-24.57-17.92-.79-38.24-1.69-53.58-18.58l-.07-.08a51.72,51.72,0,0,1-12-40.64c4.12-31.5,27.17-48.83,64.89-48.83h.36c30.53,0,46.28,14.67,54.11,27a69.11,69.11,0,0,1,4.74,9.32,13.93,13.93,0,0,1-12.88,19.27h-1.83a14.19,14.19,0,0,1-12.86-8.58c-.6-1.35-1.33-2.81-2.23-4.47-5.59-8.49-15.12-12.79-29.12-13.13-32.57,0-34.76,15.36-35.8,22.74l0,.22c-.92,7.07.7,12.58,5.1,17.31l.09.11c6.91,8.33,19.3,9.17,33.64,10.14,12.06.82,25.73,1.75,37.34,7.9,16.36,8.74,24.65,23.85,24.65,44.89A53,53,0,0,1,1462,683C1450.36,694.2,1433.76,700.15,1414,700.15Z"/>
          <path class="cls-2" d="M1413.6,514.37c29.41,0,44.47,14,52,25.82a67.31,67.31,0,0,1,4.55,8.95,11.43,11.43,0,0,1-10.58,15.8h-1.83a11.66,11.66,0,0,1-10.58-7.1c-.7-1.58-1.5-3.15-2.36-4.73-6.1-9.33-16.5-14-31.2-14.35-35.15,0-37.31,17.57-38.38,25.11-1.08,8.25,1.07,14.34,5.74,19.36,14,16.86,47.34,5.74,71.73,18.66,15.42,8.24,23.32,22.59,23.32,42.68a50.44,50.44,0,0,1-15.79,36.58c-11.83,11.48-28.33,16.5-46.26,16.5-19,0-35.15-5.74-46.63-16.14a57.12,57.12,0,0,1-12.53-17.79c-3.36-7.47,2.34-15.92,10.53-15.92h2a11.15,11.15,0,0,1,10.21,6.31,28.72,28.72,0,0,0,6.7,9.47c8.3,7.37,19.76,9.48,29.41,9.48,1.61,0,3.17-.06,4.66-.16,19.73-1.07,33-12.55,33-28.33,0-47-57-9.69-89-44.84A49.29,49.29,0,0,1,1350.83,561c3.94-30.13,26.18-46.63,62.41-46.63h.36m0-5h-.36c-19.15,0-34.73,4.38-46.3,13-11.84,8.83-18.92,21.6-21.07,38v.06a54.14,54.14,0,0,0,12.61,42.53l.06.08.08.08c16,17.66,37.82,18.62,55.32,19.39,22.42,1,32.33,2.26,32.33,22.08,0,13-11.36,22.42-28.27,23.34h-.08c-1.43.1-2.88.15-4.31.15-7.67,0-18.42-1.42-26.06-8.2A23.49,23.49,0,0,1,1382,652a16.13,16.13,0,0,0-14.76-9.23h-2a16.49,16.49,0,0,0-13.88,7.57,16.13,16.13,0,0,0-1.21,15.4,62.14,62.14,0,0,0,13.62,19.35l.06,0,0,.05c12.59,11.4,29.87,17.43,50,17.43,20.46,0,37.66-6.19,49.74-17.91A55.45,55.45,0,0,0,1481,644.57c0-10.84-2.19-20.32-6.49-28.18a46.88,46.88,0,0,0-19.47-18.91c-12.1-6.41-26-7.36-38.36-8.19-13.77-.94-25.66-1.74-31.89-9.25l-.08-.11-.1-.1c-3.9-4.2-5.27-8.91-4.45-15.29l0-.19c1-7.19,2.93-20.57,33.33-20.59,13,.33,21.86,4.23,27,11.92.84,1.55,1.52,2.92,2.08,4.19a16.7,16.7,0,0,0,15.15,10.07h1.83a16.43,16.43,0,0,0,15.19-22.73,71.18,71.18,0,0,0-4.89-9.62l0,0,0,0c-8.17-12.84-24.56-28.14-56.22-28.14Z"/>
        </g>
        <g>
          <path class="cls-10" d="M1548.19,698.36A16.24,16.24,0,0,1,1532,682.14V543.41h-15.39A14.4,14.4,0,0,1,1502.2,529a15,15,0,0,1,15-15H1532V470.07a15.24,15.24,0,0,1,15.22-15.23,14.55,14.55,0,0,1,14.53,14.53V514h14.56a15.22,15.22,0,0,1,15.21,15.21,14.2,14.2,0,0,1-14.19,14.18h-15.58V684.83A13.55,13.55,0,0,1,1548.19,698.36Z"/>
          <path class="cls-2" d="M1547.19,457.34a12,12,0,0,1,12,12v47.15h17.06A12.71,12.71,0,0,1,1589,529.23a11.68,11.68,0,0,1-11.69,11.68h-18.08V684.83a11,11,0,0,1-11,11,13.72,13.72,0,0,1-13.72-13.72V540.91h-17.89A11.88,11.88,0,0,1,1504.7,529h0a12.51,12.51,0,0,1,12.51-12.51h17.26V470.07a12.73,12.73,0,0,1,12.72-12.73h0m0-5a17.74,17.74,0,0,0-17.72,17.73v41.45h-12.26A17.54,17.54,0,0,0,1499.7,529a16.9,16.9,0,0,0,16.88,16.88h12.89V682.14a18.74,18.74,0,0,0,18.72,18.72,16,16,0,0,0,16-16V545.91h13.08A16.7,16.7,0,0,0,1594,529.23a17.72,17.72,0,0,0-17.71-17.71h-12.06V469.37a17,17,0,0,0-17-17Z"/>
        </g>
      </g>
      <g>
        <g>
          <polygon class="cls-11" points="799.24 805.22 799.24 768.61 786.02 787.71 779.91 787.71 766.76 768.63 766.76 805.22 758.05 805.22 758.05 753.69 766.95 753.69 782.96 776.84 798.97 753.69 807.95 753.69 807.95 805.22 799.24 805.22"/>
          <path class="cls-2" d="M807,754.69v49.53h-6.71V765.41l-14.74,21.3h-5.07l-14.67-21.3v38.81h-6.71V754.69h7.38L783,778.59l16.54-23.9H807m2-2h-10.5l-.6.86L783,775.08l-14.89-21.53-.59-.86H757.05v53.53h10.71V771.84l11,16,.6.86h7.16l.6-.86,11.1-16v34.41H809V752.69Z"/>
        </g>
        <g>
          <rect class="cls-11" x="813.4" y="753.69" width="8.25" height="51.53"/>
          <path class="cls-2" d="M820.66,754.69v49.53H814.4V754.69h6.26m2-2H812.4v53.53h10.26V752.69Z"/>
        </g>
        <g>
          <polygon class="cls-11" points="868.29 805.22 868.29 768.61 855.07 787.71 848.96 787.71 835.81 768.63 835.81 805.22 827.11 805.22 827.11 753.69 836.01 753.69 852.02 776.84 868.03 753.69 877 753.69 877 805.22 868.29 805.22"/>
          <path class="cls-2" d="M876,754.69v49.53h-6.7V765.41l-14.75,21.3h-5.07l-14.67-21.3v38.81h-6.7V754.69h7.37L852,778.59l16.53-23.9H876m2-2H867.5l-.59.86L852,775.08l-14.89-21.53-.6-.86H826.11v53.53h10.7V771.84l11,16,.59.86h7.17l.59-.86,11.11-16v34.41H878V752.69Z"/>
        </g>
        <g>
          <path class="cls-11" d="M907.51,805.59a25.35,25.35,0,0,1-18.22-7.6,25.86,25.86,0,1,1,44.1-18.35A26.17,26.17,0,0,1,925.8,798,25.46,25.46,0,0,1,907.51,805.59Zm0-43.05a17.05,17.05,0,0,0-17.1,17.1,17.38,17.38,0,0,0,5,12.25,17.17,17.17,0,0,0,24.2,0,17.4,17.4,0,0,0,5-12.25,17.05,17.05,0,0,0-17.1-17.1Z"/>
          <path class="cls-2" d="M907.51,754.76a24.91,24.91,0,0,1,17.58,42.53,24.86,24.86,0,1,1-17.58-42.53m0,43.12a18.08,18.08,0,0,0,12.81-5.28,18.42,18.42,0,0,0,5.29-13,18.1,18.1,0,1,0-36.2,0,18.42,18.42,0,0,0,5.29,13,18.1,18.1,0,0,0,12.81,5.28m0-45.12a26.91,26.91,0,0,0-18.9,46,26.7,26.7,0,0,0,37.9,0,26.91,26.91,0,0,0-19-45.93Zm0,43.12a16,16,0,0,1-11.4-4.7,16.43,16.43,0,0,1-4.7-11.54,16.1,16.1,0,1,1,32.2,0,16.38,16.38,0,0,1-4.7,11.54,16,16,0,0,1-11.4,4.7Z"/>
        </g>
        <g>
          <path class="cls-11" d="M954.22,805.66c-5.5,0-10-1.59-13.28-4.74-2.91-2.92-4.54-6.51-5.14-11.33l-.09-.7,1-.5h7.65l.13.85a8.64,8.64,0,0,0,2.38,5.31,10.11,10.11,0,0,0,7.1,2.38c.42,0,.86,0,1.31,0,4.82-.26,7.93-2.88,7.93-6.68,0-1.93-.45-3.09-1.57-4-1.52-1.15-4.52-1.91-8.9-2.23-10-.88-15.3-6-15.3-14.93A15.23,15.23,0,0,1,941.67,758c3-3,7.11-4.46,12.32-4.46,5.43,0,9.73,1.68,12.8,5a19.92,19.92,0,0,1,4.88,11.28l.14,1.13H963.1l-.11-.88a10.72,10.72,0,0,0-1.42-4.36c-1.57-2.38-3.82-3.41-7.5-3.41-3,0-5.21.64-6.35,1.85a6.65,6.65,0,0,0-1.66,4.9c0,2.93,1,4,2,4.69a11.46,11.46,0,0,0,5.4,1.46c5.73.54,9.47,1.56,12.5,3.43,3.92,2.48,5.91,6.37,5.91,11.57a14.77,14.77,0,0,1-4.55,10.63A18.44,18.44,0,0,1,954.22,805.66Z"/>
          <path class="cls-2" d="M954,754.54c5.44,0,9.39,1.78,12.07,4.69A19,19,0,0,1,970.68,770H964a11.6,11.6,0,0,0-1.57-4.77c-1.71-2.61-4.17-3.88-8.34-3.88-3.35,0-5.73.75-7.08,2.17a7.86,7.86,0,0,0-1.93,5.58c0,2.9.89,4.47,2.38,5.51s3.5,1.42,5.89,1.64c5.58.52,9.16,1.49,12.06,3.28,3.65,2.31,5.44,5.88,5.44,10.72a13.77,13.77,0,0,1-4.25,9.91c-3.35,3.28-8,4.54-12.36,4.54-5.29,0-9.46-1.49-12.59-4.47-2.61-2.6-4.24-6-4.84-10.72l.15-.08h6.55c.45,2.91,1.35,4.62,2.68,5.89a11,11,0,0,0,7.79,2.65c.44,0,.9,0,1.38,0,5.58-.29,8.86-3.5,8.86-7.67a5.56,5.56,0,0,0-1.94-4.76c-1.56-1.19-4.39-2.09-9.46-2.46-9.31-.82-14.37-5.36-14.37-13.93a14.19,14.19,0,0,1,4-10.35c2.75-2.76,6.62-4.17,11.61-4.17m0-2c-5.49,0-9.87,1.6-13,4.75a16.24,16.24,0,0,0-4.53,11.77c0,6.61,2.81,14.74,16.2,15.92,4.19.31,7,1,8.4,2,.85.7,1.17,1.57,1.17,3.19,0,3.27-2.67,5.45-7,5.68-.46,0-.87,0-1.27,0a9.17,9.17,0,0,1-6.43-2.12c-.76-.72-1.62-1.86-2.06-4.72l-.26-1.7h-8.74l-.43.22-.14.07-1.27.63.18,1.41c.63,5,2.35,8.83,5.41,11.89,3.53,3.36,8.23,5,14,5A19.41,19.41,0,0,0,968,801.55a15.71,15.71,0,0,0,4.85-11.34c0-5.56-2.15-9.74-6.37-12.41-3.19-2-7.06-3-13-3.58a10.68,10.68,0,0,1-4.92-1.29c-.8-.55-1.53-1.41-1.53-3.87a5.93,5.93,0,0,1,1.35-4.17l0,0,0,0c.93-1,2.93-1.54,5.62-1.54,4.15,0,5.66,1.43,6.67,3a9.58,9.58,0,0,1,1.25,3.92l.23,1.75H973l-.29-2.26a20.84,20.84,0,0,0-5.13-11.83c-3.27-3.54-7.82-5.33-13.54-5.33Z"/>
        </g>
        <g>
          <path class="cls-11" d="M1013.78,805.22V753.69h14.93a17,17,0,0,1,11.88,5,17.34,17.34,0,0,1,5,12.18,17,17,0,0,1-5,12.1,16.73,16.73,0,0,1-11.88,5.06h-6.37v17.21Zm14.93-25.84a7.92,7.92,0,0,0,5.83-2.52,8.44,8.44,0,0,0,0-11.93,8.15,8.15,0,0,0-5.85-2.47h-6.37v16.92Z"/>
          <path class="cls-2" d="M1028.71,754.69a15.86,15.86,0,0,1,11.17,4.69,16.33,16.33,0,0,1,4.7,11.47,16,16,0,0,1-4.7,11.39,15.65,15.65,0,0,1-11.17,4.77h-7.37v17.21h-6.56V754.69h13.93m-7.37,25.69h7.37a8.86,8.86,0,0,0,6.55-2.83,9.43,9.43,0,0,0,0-13.33,9.11,9.11,0,0,0-6.55-2.76h-7.37v18.92m7.37-27.69h-15.93v53.53h10.56V789h5.37a17.73,17.73,0,0,0,12.6-5.37,18,18,0,0,0,5.27-12.79,18.33,18.33,0,0,0-5.27-12.87,18,18,0,0,0-12.6-5.29Zm-5.37,10.77h5.37a7.15,7.15,0,0,1,5.14,2.17,7.25,7.25,0,0,1,2.17,5.22,7.33,7.33,0,0,1-2.17,5.29,6.88,6.88,0,0,1-5.14,2.24h-5.37V763.46Z"/>
        </g>
        <g>
          <polygon class="cls-11" points="1050.29 805.22 1050.29 753.69 1079.39 753.69 1079.39 762.39 1058.76 762.39 1058.76 775.43 1072.62 775.43 1072.62 783.54 1058.76 783.54 1058.76 796.51 1079.39 796.51 1079.39 805.22 1050.29 805.22"/>
          <path class="cls-2" d="M1078.39,754.69v6.7h-20.63v15h13.86v6.11h-13.86v15h20.63v6.71h-27.11V754.69h27.11m2-2h-31.11v53.53h31.11V795.51h-20.63v-11h13.86V774.43h-13.86v-11h20.63v-10.7Z"/>
        </g>
        <g>
          <path class="cls-11" d="M1106.16,805.22l-12.76-15.17v15.17h-8.55V753.76h13.73a16.46,16.46,0,0,1,11.89,5,17.56,17.56,0,0,1,4.83,12.17,17.13,17.13,0,0,1-4.28,11.47,16.94,16.94,0,0,1-8.78,5.24l15.38,17.59Zm-7.58-25.84a8.19,8.19,0,0,0,5.84-2.45,8.72,8.72,0,0,0,0-12,8.21,8.21,0,0,0-5.82-2.43h-5.18v16.92Z"/>
          <path class="cls-2" d="M1098.58,754.76a15.56,15.56,0,0,1,11.18,4.69,16.54,16.54,0,0,1,4.54,11.47,16.12,16.12,0,0,1-4,10.8,15.67,15.67,0,0,1-10,5.22l15.12,17.28h-8.79l-14.23-16.91v16.91h-6.55V754.76h12.73m-6.18,25.62h6.18a9.26,9.26,0,0,0,6.56-2.75,9.73,9.73,0,0,0,2.68-6.71,9.86,9.86,0,0,0-2.68-6.7,9.27,9.27,0,0,0-6.56-2.76h-6.18v18.92m6.18-27.62h-14.73v53.46h10.55V792.79l10.7,12.71.6.72h14.12l-2.9-3.32L1104,788.17a18,18,0,0,0,12.27-17.25,18.6,18.6,0,0,0-5.09-12.85,17.5,17.5,0,0,0-12.63-5.31Zm-4.18,10.7h4.18a7.28,7.28,0,0,1,5.11,2.14,7.71,7.71,0,0,1,0,10.64,7.28,7.28,0,0,1-5.11,2.14h-4.18V763.46Z"/>
        </g>
        <g>
          <path class="cls-11" d="M1137.62,805.66c-5.51,0-10-1.59-13.28-4.74-2.91-2.91-4.54-6.51-5.15-11.33l-.08-.7,1-.5h7.65l.13.85a8.59,8.59,0,0,0,2.38,5.31,10.09,10.09,0,0,0,7.1,2.38c.42,0,.85,0,1.3,0,4.83-.26,7.94-2.88,7.94-6.68,0-1.93-.46-3.09-1.57-4-1.52-1.15-4.52-1.91-8.9-2.23-10-.88-15.3-6-15.3-14.93a15.19,15.19,0,0,1,4.24-11.06c3-3,7.11-4.46,12.32-4.46,5.43,0,9.73,1.68,12.8,5a19.92,19.92,0,0,1,4.88,11.28l.14,1.13h-8.72l-.11-.88a10.47,10.47,0,0,0-1.42-4.36c-1.56-2.38-3.81-3.41-7.49-3.41-3,0-5.21.64-6.35,1.85a6.65,6.65,0,0,0-1.66,4.9c0,2.93,1,4,2,4.69a11.53,11.53,0,0,0,5.41,1.46c5.73.54,9.46,1.56,12.49,3.43,3.93,2.48,5.91,6.37,5.91,11.57a14.76,14.76,0,0,1-4.54,10.63A18.45,18.45,0,0,1,1137.62,805.66Z"/>
          <path class="cls-2" d="M1137.39,754.54c5.44,0,9.39,1.78,12.07,4.69a19,19,0,0,1,4.62,10.73h-6.71a11.59,11.59,0,0,0-1.56-4.77c-1.71-2.61-4.17-3.88-8.34-3.88-3.35,0-5.74.75-7.08,2.17a7.86,7.86,0,0,0-1.93,5.58c0,2.9.89,4.47,2.38,5.51s3.5,1.42,5.88,1.64c5.59.52,9.16,1.49,12.07,3.28,3.65,2.31,5.43,5.88,5.43,10.72a13.76,13.76,0,0,1-4.24,9.91c-3.35,3.28-8,4.54-12.36,4.54-5.29,0-9.46-1.49-12.59-4.47-2.61-2.6-4.25-6-4.84-10.72l.15-.08h6.55c.45,2.91,1.34,4.62,2.68,5.89a11,11,0,0,0,7.79,2.65c.44,0,.9,0,1.37,0,5.59-.29,8.87-3.5,8.87-7.67a5.56,5.56,0,0,0-1.94-4.76c-1.56-1.19-4.39-2.09-9.46-2.46-9.31-.82-14.37-5.36-14.37-13.93a14.22,14.22,0,0,1,3.94-10.35c2.76-2.76,6.63-4.17,11.62-4.17m0-2c-5.49,0-9.87,1.6-13,4.75a16.2,16.2,0,0,0-4.53,11.77c0,6.61,2.81,14.74,16.2,15.92,4.18.31,7,1,8.4,2,.85.7,1.17,1.57,1.17,3.19,0,3.27-2.67,5.45-7,5.68-.46,0-.87,0-1.27,0a9.15,9.15,0,0,1-6.43-2.12c-.77-.72-1.62-1.86-2.06-4.72l-.26-1.7h-8.75l-.42.22-.15.07-1.26.63.17,1.41c.63,5,2.35,8.83,5.41,11.89,3.54,3.36,8.24,5,14,5a19.41,19.41,0,0,0,13.76-5.11,15.73,15.73,0,0,0,4.84-11.34c0-5.56-2.14-9.74-6.36-12.41-3.19-2-7.06-3-12.95-3.58a10.68,10.68,0,0,1-4.92-1.29c-.8-.55-1.53-1.41-1.53-3.87a5.93,5.93,0,0,1,1.35-4.17v0l0,0c.94-1,2.94-1.54,5.63-1.54,4.14,0,5.65,1.43,6.67,3a9.58,9.58,0,0,1,1.25,3.92l.23,1.75h10.73l-.29-2.26a20.84,20.84,0,0,0-5.13-11.83c-3.27-3.54-7.83-5.33-13.54-5.33Z"/>
        </g>
        <g>
          <path class="cls-11" d="M1183.5,805.59a25.33,25.33,0,0,1-18.21-7.6,25.86,25.86,0,1,1,44.09-18.35,26.17,26.17,0,0,1-7.59,18.36A25.46,25.46,0,0,1,1183.5,805.59Zm0-43.05a17.05,17.05,0,0,0-17.1,17.1,17.4,17.4,0,0,0,5,12.25,17.18,17.18,0,0,0,24.21,0,17.41,17.41,0,0,0,5-12.25,17,17,0,0,0-17.1-17.1Z"/>
          <path class="cls-2" d="M1183.5,754.76a24.91,24.91,0,0,1,17.58,42.53,24.86,24.86,0,1,1-17.58-42.53m0,43.12a18.08,18.08,0,0,0,12.81-5.28,18.42,18.42,0,0,0,5.29-13,18.1,18.1,0,1,0-36.2,0,18.42,18.42,0,0,0,5.29,13,18.1,18.1,0,0,0,12.81,5.28m0-45.12a26.91,26.91,0,0,0-18.9,46,26.71,26.71,0,0,0,37.91,0,26.92,26.92,0,0,0-19-45.93Zm0,43.12a16,16,0,0,1-11.4-4.7,16.43,16.43,0,0,1-4.7-11.54,16.1,16.1,0,1,1,32.2,0,16.38,16.38,0,0,1-4.7,11.54,16,16,0,0,1-11.4,4.7Z"/>
        </g>
        <g>
          <polygon class="cls-11" points="1243.5 805.22 1222.72 771.4 1222.72 805.22 1214.09 805.22 1214.09 753.69 1222.13 753.69 1243.66 788.55 1243.66 753.69 1252.21 753.69 1252.21 805.22 1243.5 805.22"/>
          <path class="cls-2" d="M1251.21,754.69v49.53h-7.15l-22.34-36.35v36.35h-6.63V754.69h6.48l23.09,37.39V754.69h6.55m2-2h-10.55V785l-19.39-31.4-.59-.94h-9.59v53.53h10.63V774.94l18.64,30.32.58,1h10.27V752.69Z"/>
        </g>
        <g>
          <path class="cls-11" d="M1291.62,805.22l-6.11-17.43h-14.07l-6.11,17.43h-9.19l17.9-51.46h8.87l17.9,51.46Zm-9-25.69-4.19-12.12-4.24,12.12Z"/>
          <path class="cls-2" d="M1282.2,754.76l17.21,49.46h-7.08l-6.11-17.43h-15.49l-6.11,17.43h-7.07l17.2-49.46h7.45m-9.38,25.77h11.24l-5.58-16.16-5.66,16.16m10.8-27.77h-10.29l-.47,1.34-17.2,49.46-.93,2.66H1266l.47-1.34,5.64-16.09h12.65l5.64,16.09.47,1.34h11.31l-.92-2.66-17.21-49.46-.47-1.34Zm-8,25.77,2.83-8.07,2.79,8.07Z"/>
        </g>
        <g>
          <polygon class="cls-11" points="1304.74 805.22 1304.74 753.69 1313.15 753.69 1313.15 796.51 1328.05 796.51 1328.05 805.22 1304.74 805.22"/>
          <path class="cls-2" d="M1312.15,754.69v42.82h14.9v6.71h-21.31V754.69h6.41m2-2h-10.41v53.53h25.31V795.51h-14.9V752.69Z"/>
        </g>
        <g>
          <rect class="cls-11" x="1332.75" y="753.69" width="8.26" height="51.53"/>
          <path class="cls-2" d="M1340,754.69v49.53h-6.26V754.69H1340m2-2h-10.26v53.53H1342V752.69Z"/>
        </g>
        <g>
          <polygon class="cls-11" points="1345.71 805.22 1345.71 798.02 1370 762.39 1345.71 762.39 1345.71 753.69 1381.38 753.69 1381.38 761.03 1357.17 796.44 1381.38 796.44 1381.38 805.22 1345.71 805.22"/>
          <path class="cls-2" d="M1380.38,754.69v6l-25.1,36.72h25.1v6.78h-33.67v-5.89l25.18-36.94h-25.18v-6.7h33.67m2-2h-37.67v10.7h23.39l-23,33.82-.35.51v8.5h37.67V795.44h-23.31l23-33.59.35-.51v-8.65Z"/>
        </g>
        <g>
          <path class="cls-11" d="M1420,805.22l-6.1-17.43h-14.08l-6.1,17.43h-9.19l17.89-51.46h8.87l17.91,51.46Zm-9-25.69-4.19-12.12-4.24,12.12Z"/>
          <path class="cls-2" d="M1410.62,754.76l17.21,49.46h-7.08l-6.1-17.43h-15.5l-6.1,17.43H1386l17.21-49.46h7.44m-9.38,25.77h11.25l-5.59-16.16-5.66,16.16m10.8-27.77h-10.29l-.46,1.34-17.21,49.46-.92,2.66h11.3l.47-1.34,5.64-16.09h12.66l5.64,16.09.47,1.34h11.3l-.92-2.66-17.21-49.46-.47-1.34Zm-8,25.77,2.83-8.08,2.79,8.08Z"/>
        </g>
        <g>
          <path class="cls-11" d="M1433.17,805.22V753.61H1447a25.39,25.39,0,0,1,18.06,7.52,26.19,26.19,0,0,1,7.44,18.28,25.8,25.8,0,0,1-7.44,18.21,25.16,25.16,0,0,1-18.06,7.6Zm13.81-8.71a17,17,0,0,0,12-5,17.35,17.35,0,0,0,0-24.22,17,17,0,0,0-11.94-5h-5.11v34.2Z"/>
          <path class="cls-2" d="M1447,754.61a24.42,24.42,0,0,1,17.35,7.23,25.17,25.17,0,0,1,7.15,17.57,24.9,24.9,0,0,1-7.15,17.51,24.19,24.19,0,0,1-17.35,7.3h-12.81V754.61H1447m-6.11,42.9H1447a18,18,0,0,0,12.66-5.29,18.35,18.35,0,0,0,0-25.62,18,18,0,0,0-12.66-5.29h-6.11v36.2m6.11-44.9h-14.81v53.61H1447a26.18,26.18,0,0,0,18.78-7.9,26.81,26.81,0,0,0,7.72-18.91,27.16,27.16,0,0,0-7.71-19,26.42,26.42,0,0,0-18.79-7.84Zm-4.11,10.7H1447a16,16,0,0,1,11.24,4.71,16.35,16.35,0,0,1,0,22.81,16,16,0,0,1-11.23,4.68h-4.11v-32.2Z"/>
        </g>
        <g>
          <path class="cls-11" d="M1502.25,805.59A25.35,25.35,0,0,1,1484,798a25.86,25.86,0,1,1,44.09-18.35,26.13,26.13,0,0,1-7.59,18.36A25.44,25.44,0,0,1,1502.25,805.59Zm0-43.05a17,17,0,0,0-17.1,17.1,17.41,17.41,0,0,0,5,12.25,17.18,17.18,0,0,0,24.21,0,17.41,17.41,0,0,0,5-12.25,17,17,0,0,0-17.09-17.1Z"/>
          <path class="cls-2" d="M1502.25,754.76a24.91,24.91,0,0,1,17.57,42.53,24.86,24.86,0,1,1-17.57-42.53m0,43.12a18.1,18.1,0,0,0,12.81-5.28,18.45,18.45,0,0,0,5.28-13,18.1,18.1,0,1,0-36.19,0,18.42,18.42,0,0,0,5.29,13,18.08,18.08,0,0,0,12.81,5.28m0-45.12a26.91,26.91,0,0,0-18.91,46,26.71,26.71,0,0,0,37.91,0,26.91,26.91,0,0,0-19-45.93Zm0,43.12a16,16,0,0,1-11.4-4.7,16.38,16.38,0,0,1-4.7-11.54,16.1,16.1,0,1,1,32.19,0,16.38,16.38,0,0,1-4.7,11.54,16,16,0,0,1-11.39,4.7Z"/>
        </g>
        <g>
          <path class="cls-11" d="M1549,805.66c-5.51,0-10-1.59-13.28-4.74-2.92-2.92-4.55-6.51-5.15-11.33l-.08-.7,1-.5h7.65l.13.85a8.59,8.59,0,0,0,2.38,5.31,10.06,10.06,0,0,0,7.09,2.38c.43,0,.86,0,1.31,0,4.83-.26,7.94-2.88,7.94-6.68,0-1.93-.46-3.09-1.57-4-1.52-1.15-4.53-1.91-8.9-2.23-10-.88-15.31-6-15.31-14.93a15.2,15.2,0,0,1,4.25-11.06c3-3,7.11-4.46,12.32-4.46,5.42,0,9.73,1.68,12.8,5a19.92,19.92,0,0,1,4.88,11.28l.14,1.13h-8.72l-.11-.88a10.57,10.57,0,0,0-1.42-4.36c-1.57-2.38-3.81-3.41-7.5-3.41-3,0-5.2.64-6.34,1.85a6.66,6.66,0,0,0-1.67,4.9c0,2.93,1,4,2,4.69a11.53,11.53,0,0,0,5.4,1.46c5.73.54,9.47,1.56,12.5,3.43,3.93,2.48,5.91,6.37,5.91,11.57a14.76,14.76,0,0,1-4.54,10.63A18.47,18.47,0,0,1,1549,805.66Z"/>
          <path class="cls-2" d="M1548.73,754.54c5.44,0,9.38,1.78,12.07,4.69a19,19,0,0,1,4.61,10.73h-6.7a11.59,11.59,0,0,0-1.56-4.77c-1.72-2.61-4.17-3.88-8.35-3.88-3.35,0-5.73.75-7.07,2.17a7.87,7.87,0,0,0-1.94,5.58c0,2.9.9,4.47,2.39,5.51s3.5,1.42,5.88,1.64c5.59.52,9.16,1.49,12.07,3.28,3.65,2.31,5.43,5.88,5.43,10.72a13.76,13.76,0,0,1-4.24,9.91c-3.35,3.28-8,4.54-12.36,4.54-5.29,0-9.46-1.49-12.59-4.47-2.61-2.6-4.25-6-4.84-10.72l.14-.08h6.56c.45,2.91,1.34,4.62,2.68,5.89a11,11,0,0,0,7.79,2.65c.44,0,.9,0,1.37,0,5.59-.29,8.87-3.5,8.87-7.67a5.58,5.58,0,0,0-1.94-4.76c-1.57-1.19-4.4-2.09-9.46-2.46-9.31-.82-14.38-5.36-14.38-13.93a14.19,14.19,0,0,1,3.95-10.35c2.76-2.76,6.63-4.17,11.62-4.17m0-2c-5.49,0-9.87,1.6-13,4.75a16.2,16.2,0,0,0-4.54,11.77c0,6.61,2.82,14.74,16.2,15.92,4.19.31,7,1,8.4,2,.86.7,1.18,1.57,1.18,3.19,0,3.27-2.68,5.45-7,5.68-.46,0-.88,0-1.27,0a9.13,9.13,0,0,1-6.43-2.12c-.77-.72-1.63-1.86-2.06-4.72l-.26-1.7h-8.75l-.42.22-.15.07-1.26.63.17,1.41c.63,5,2.35,8.83,5.41,11.89,3.54,3.36,8.23,5,14,5a19.43,19.43,0,0,0,13.76-5.11,15.74,15.74,0,0,0,4.84-11.34c0-5.56-2.14-9.74-6.36-12.41-3.19-2-7.06-3-13-3.58a10.76,10.76,0,0,1-4.93-1.29c-.79-.55-1.53-1.41-1.53-3.87a6,6,0,0,1,1.35-4.17l0,0,0,0c.94-1,2.94-1.54,5.62-1.54,4.15,0,5.66,1.43,6.68,3a9.73,9.73,0,0,1,1.25,3.92L1557,772h10.72l-.28-2.26a21,21,0,0,0-5.13-11.83c-3.27-3.54-7.83-5.33-13.54-5.33Z"/>
        </g>
      </g>
      <g>
        <path class="cls-12" d="M1313,473l1.19-1.24a60.76,60.76,0,0,0,14.7-58.14l-.46-1.66,33.67,8.51.16.56a62.8,62.8,0,0,1-15.19,60.07l-.4.42Z"/>
        <path class="cls-2" d="M1329.89,413.31l31.43,7.95a61.52,61.52,0,0,1-14.94,59.11l-31.44-8a61.53,61.53,0,0,0,15-59.1m-2.85-2.78.92,3.31A59.78,59.78,0,0,1,1313.5,471l-2.39,2.48,3.34.84,15.72,4,15.72,4,1.13.28.8-.84a63.78,63.78,0,0,0,15.43-61l-.31-1.12-1.13-.29-15.72-4-15.71-4-3.34-.84Z"/>
      </g>
      <g>
        <path class="cls-13" d="M745.66,518.89A62.67,62.67,0,0,1,695,493l-.34-.47L709,460.9l1,1.4a60.67,60.67,0,0,0,49,25.07c1.85,0,3.72-.08,5.56-.25l1.72-.16L752,518.57l-.57.06C749.49,518.8,747.56,518.89,745.66,518.89Z"/>
        <path class="cls-2" d="M709.22,462.88a61.51,61.51,0,0,0,49.86,25.49c1.87,0,3.76-.08,5.64-.26Q758,502.87,751.3,517.63c-1.89.17-3.77.26-5.64.26a61.53,61.53,0,0,1-49.86-25.48q6.72-14.76,13.42-29.53m-.39-4-1.43,3.14-6.73,14.8L694,491.58l-.48,1.06.68.94a63.7,63.7,0,0,0,51.48,26.31c1.93,0,3.9-.09,5.83-.27l1.15-.1.48-1.06,6.75-14.85,6.67-14.67,1.43-3.13-3.43.31c-1.81.17-3.65.25-5.46.25a59.68,59.68,0,0,1-48.24-24.66l-2-2.79Z"/>
      </g>
      <g>
        <path class="cls-14" d="M1434.7,407.3l1.4-1a60.79,60.79,0,0,0,24.79-54.62l-.16-1.71,31.62,14.35.06.58a62.8,62.8,0,0,1-25.61,56.42l-.47.34Z"/>
        <path class="cls-2" d="M1461.89,351.59l29.52,13.4a61.56,61.56,0,0,1-25.19,55.52l-29.53-13.4a61.55,61.55,0,0,0,25.2-55.52m-2.31-3.24.31,3.42a59.75,59.75,0,0,1-24.38,53.71l-2.79,2,3.14,1.43,14.74,6.69,14.79,6.71,1.06.48.94-.68a63.79,63.79,0,0,0,26-57.32l-.1-1.16-1.06-.48-14.58-6.61-15-6.79-3.13-1.42Z"/>
      </g>
      <g>
        <path class="cls-15" d="M155.79,120.23l1.71-.16a60.75,60.75,0,0,0,49.11-34.42l.74-1.56,19.93,28.44-.25.52a62.77,62.77,0,0,1-50.73,35.57l-.58.06Z"/>
        <path class="cls-2" d="M207.52,86.08l18.61,26.55a61.56,61.56,0,0,1-49.92,35l-18.62-26.56a61.53,61.53,0,0,0,49.93-35m-.34-4-1.47,3.11a59.77,59.77,0,0,1-48.3,33.86l-3.43.32,2,2.82,9.38,13.37,9.24,13.18.67,1,1.15-.11a63.84,63.84,0,0,0,51.55-36.14l.49-1-.67-1-9.25-13.2-9.36-13.35-2-2.82Z"/>
      </g>
      <g>
        <path class="cls-16" d="M425,654.29l1.71-.16a60.75,60.75,0,0,0,49.11-34.42l.74-1.56,19.93,28.44-.25.52a62.77,62.77,0,0,1-50.73,35.57l-.58.06Z"/>
        <path class="cls-2" d="M476.72,620.13q9.3,13.27,18.61,26.56a61.56,61.56,0,0,1-49.92,35l-18.62-26.56a61.52,61.52,0,0,0,49.93-35m-.34-4-1.47,3.11a59.79,59.79,0,0,1-48.3,33.86l-3.43.32,2,2.82,9.38,13.38,9.23,13.17.67.95,1.15-.1a63.84,63.84,0,0,0,51.55-36.14l.49-1-.67-1-9.33-13.32L478.35,619l-2-2.82Z"/>
      </g>
      <g>
        <polygon class="cls-17" points="563.68 311.39 540.5 323.57 544.93 297.77 526.18 279.49 552.09 275.73 563.68 252.25 575.26 275.73 601.17 279.49 582.42 297.77 586.85 323.57 563.68 311.39"/>
        <path class="cls-2" d="M563.68,254.51l10.92,22.13L599,280.19l-17.67,17.23,4.17,24.33-21.84-11.49-21.85,11.49L546,297.42l-17.67-17.23,24.42-3.55,10.93-22.13m0-4.52-1.8,3.63-10.46,21.19L528,278.21l-4,.59,2.9,2.82,16.92,16.5-4,23.29-.69,4,3.59-1.88,20.92-11,20.91,11,3.59,1.88-.69-4-4-23.29,16.92-16.5,2.9-2.82-4-.59-23.38-3.4-10.46-21.19L563.68,250Z"/>
      </g>
      <g>
        <polygon class="cls-18" points="1183.24 454.23 1165.95 437.38 1189.84 433.91 1200.53 412.26 1211.21 433.91 1235.1 437.38 1217.81 454.23 1221.89 478.02 1200.53 466.79 1179.16 478.02 1183.24 454.23"/>
        <path class="cls-2" d="M1200.53,414.52l10,20.3,22.4,3.26-16.21,15.8,3.82,22.31-20-10.53-20,10.53,3.83-22.31-16.22-15.8,22.41-3.26,10-20.3m0-4.52-1.8,3.64L1189.18,433l-21.36,3.1-4,.58,2.9,2.83,15.46,15.07-3.65,21.28-.69,4,3.59-1.89,19.11-10,19.1,10,3.59,1.89-.68-4-3.65-21.28,15.45-15.07,2.91-2.83-4-.58-21.37-3.1-9.55-19.36-1.79-3.64Z"/>
      </g>
      <g>
        <polygon class="cls-19" points="1095.65 695.49 1081.95 682.14 1100.88 679.39 1109.35 662.24 1117.81 679.39 1136.74 682.14 1123.04 695.49 1126.28 714.35 1109.35 705.45 1092.41 714.35 1095.65 695.49"/>
        <path class="cls-2" d="M1109.35,664.49l7.8,15.81,17.44,2.54L1122,695.15l3,17.37-15.6-8.2-15.61,8.2,3-17.37-12.62-12.31,17.44-2.54,7.81-15.81m0-4.51-1.8,3.63-7.33,14.87-16.41,2.38-4,.58,2.9,2.83,11.87,11.57-2.8,16.34-.69,4,3.59-1.89,14.68-7.71,14.67,7.71,3.59,1.89-.69-4-2.8-16.34L1136,684.27l2.9-2.83-4-.58-16.4-2.38-7.34-14.87-1.79-3.63Z"/>
      </g>
      <g>
        <polygon class="cls-20" points="497.13 484.16 475.77 495.39 479.85 471.6 462.56 454.75 486.45 451.28 497.13 429.63 507.81 451.28 531.7 454.75 514.42 471.6 518.5 495.39 497.13 484.16"/>
        <path class="cls-2" d="M497.13,431.89l10,20.3,22.4,3.26-16.21,15.8,3.83,22.31-20-10.53-20,10.53,3.83-22.31-16.21-15.8,22.4-3.26,10-20.3m0-4.52L495.34,431l-9.56,19.35-21.36,3.11-4,.58,2.9,2.83L478.77,472l-3.65,21.27-.68,4,3.58-1.89,19.11-10,19.11,10,3.59,1.89-.69-4L515.49,472,531,456.88l2.9-2.83-4-.58-21.36-3.11L498.93,431l-1.8-3.64Z"/>
      </g>
      <g>
        <g>
          <path class="cls-21" d="M739.39,429.92a7.09,7.09,0,0,1-6.08-3.53c-.16-.28-.29-.57-.43-.87a5.26,5.26,0,0,0-.31-.6,1.58,1.58,0,0,0-.87-.17l-.39,0c-.4,0-.8.11-1.2.18a13.32,13.32,0,0,1-2.51.29h-.25a14,14,0,0,1-7.8-4.51,13.24,13.24,0,0,1-1.14-2.54c-.13-.38-.27-.76-.43-1.13-.32-.71-.67-1-.76-1h-.12a5.46,5.46,0,0,0-.56,0c-.32,0-.64.05-1,.05a7,7,0,0,1-6.23-3.77c-3.61-7,5.09-12,9.76-14.63.87-.5,1.62-.93,2.16-1.29l14.66-9.63,1.34.78c.76.44,1.65.87,2.6,1.32l.19-.33,2.23,1.42.18.13,2.6,1.26-.23.4c.86.6,1.67,1.15,2.43,1.59l1.33.77-1,17.51c0,.64,0,1.51,0,2.51,0,5.38,0,15.4-7.82,15.76Z"/>
          <path class="cls-2" d="M736,389.74c1.41.82,3.14,1.57,4.86,2.38l0-.05.32.22.35.16,0,.06c1.55,1.08,3.07,2.2,4.48,3l-1,16c-.25,4.29,1.1,15.62-5.47,15.92h-.19a4.58,4.58,0,0,1-3.9-2.26,10.6,10.6,0,0,0-1-1.87,3.55,3.55,0,0,0-2.76-1l-.63,0c-1.16.11-2.31.46-3.48.46h-.17a15.35,15.35,0,0,1-5.74-3.33,28.92,28.92,0,0,1-1.43-3.39,3.91,3.91,0,0,0-2.56-2.44,2.94,2.94,0,0,0-.59-.05c-.51,0-1,.09-1.54.09h0a4.57,4.57,0,0,1-4-2.42c-3-5.85,7.48-10.31,11.08-12.68L736,389.74m-.16-5.87-2.58,1.69-5.53,3.64-7.84,5.14c-.47.32-1.23.75-2,1.21a39.88,39.88,0,0,0-8,5.54c-5.48,5.34-3.74,10.45-2.74,12.4a9.57,9.57,0,0,0,8.43,5.13h.37l.15.41a15.74,15.74,0,0,0,1.36,3,15.61,15.61,0,0,0,9.86,5.7h.31a15.77,15.77,0,0,0,3-.33l.43-.07c0,.09.1.19.16.28a9.61,9.61,0,0,0,8.25,4.8h.42c2.19-.1,7.49-1.13,9.39-8.55a40.47,40.47,0,0,0,.82-9.7c0-.93,0-1.8,0-2.37l.78-13.17.17-2.79.18-3.08-2.67-1.55-.32-.19.39-.68L743.76,388h0l0,0-4.43-3-.4.68-.35-.2-2.67-1.54Z"/>
        </g>
        <path class="cls-22" d="M734.69,384.07a9.37,9.37,0,1,0,12.81-3.42A9.37,9.37,0,0,0,734.69,384.07Z"/>
        <g>
          <path class="cls-23" d="M783.5,395.39c-14.65,0-27.74-3.27-38.9-9.73-29.1-16.84-45.45-55.32-46-108.36-.51-46.46,11.63-96.85,31.68-131.5,26.91-46.5,74.86-75.38,125.13-75.38A124,124,0,0,1,917.45,87c30.68,17.76,52,47.49,59.92,83.73S979,245.16,959.7,278.57c-32,55.25-112.2,116.82-176.19,116.82Z"/>
          <path class="cls-2" d="M855.39,72.92a120.74,120.74,0,0,1,60.81,16.2c62.16,36,80.67,120.23,41.34,188.2C925.3,333,845.48,392.89,783.5,392.89c-13.64,0-26.43-2.9-37.65-9.39-62.16-36-52.76-168.48-13.43-236.45,27.32-47.2,75.35-74.13,123-74.13m0-5c-51.16,0-99.94,29.36-127.29,76.63-20.27,35-32.53,85.89-32,132.78.27,25,4.06,47,11.26,65.42,8.12,20.78,20.23,35.95,36,45.07,11.55,6.68,25.06,10.07,40.16,10.07,29.89,0,65.76-13.42,101-37.78,32.71-22.61,60.9-51.87,77.34-80.29,19.65-33.95,26-72.9,17.95-109.67C971.7,133.21,950,102.9,918.7,84.79a126.48,126.48,0,0,0-63.31-16.87Z"/>
        </g>
      </g>
      <g>
        <g>
          <path class="cls-24" d="M742.86,429a6.61,6.61,0,0,1-1.73-.24,6.51,6.51,0,0,1-4.67-1,14.19,14.19,0,0,1-2.27-1.85c-.32-.3-.63-.61-1-.88a2.47,2.47,0,0,0-1.29-.64,2.9,2.9,0,0,0-.74.38c-.29.18-.58.36-.88.51a7.36,7.36,0,0,1-7.59-.6c-6.65-4.84-.8-13.66,2.34-18.39.59-.9,1.11-1.67,1.46-2.27l9.3-16.11,1.54.09c.46,0,.95,0,1.44,0l1.82,0,0-.38,2.66.27.24,0,2.92,0,0,.46c1.16.17,2.26.31,3.24.37l1.54.09,7.35,17.09c.27.64.69,1.47,1.18,2.43,2.56,5.07,7.34,14.51.16,18.54a7.21,7.21,0,0,1-3.55.91h0a7.25,7.25,0,0,1-4.05-1.21c-.28-.18-.55-.4-.82-.61a5.32,5.32,0,0,0-.62-.45h-.14a2.76,2.76,0,0,0-1.28.48c-.37.24-.72.5-1.07.76a13.47,13.47,0,0,1-2.47,1.58A7.15,7.15,0,0,1,742.86,429Z"/>
          <path class="cls-2" d="M743,390.28l.41.06h.42v.06c2,.29,4,.64,5.72.74q3.38,7.83,6.74,15.67c1.82,4.22,8.53,14.36,2.42,17.8a4.88,4.88,0,0,1-5-.2,11.69,11.69,0,0,0-1.87-1.28,2.75,2.75,0,0,0-1.09-.21,5.09,5.09,0,0,0-2.63.87,30.34,30.34,0,0,1-3.26,2.18,4.62,4.62,0,0,1-2,.49,4.57,4.57,0,0,1-1.57-.31,5,5,0,0,1-1.16.15,4.46,4.46,0,0,1-2.36-.74,32.63,32.63,0,0,1-3-2.55,4.72,4.72,0,0,0-2.86-1.2,2.76,2.76,0,0,0-.75.1,12.47,12.47,0,0,0-2,1.06,4.69,4.69,0,0,1-2.15.51,4.83,4.83,0,0,1-2.82-.9c-5.68-4.13,2.18-13.41,4.48-17.39l8.53-14.78c.51,0,1,0,1.59,0,1.33,0,2.75-.06,4.18-.09v-.07m-4.69-5.64,0,.8c-.27,0-.52,0-.74,0l-3.08-.18-1.55,2.67-.88,1.53-7.65,13.25c-.31.53-.83,1.31-1.37,2.14a42.1,42.1,0,0,0-4.94,9c-2.59,7.51,1.38,11.42,3.21,12.75a9.86,9.86,0,0,0,10.19.81l.51-.28.52.49a16.07,16.07,0,0,0,2.68,2.17,9.34,9.34,0,0,0,5,1.49c.29,0,.57,0,.86,0a9.22,9.22,0,0,0,1.87.2,9.6,9.6,0,0,0,4.1-1,16.16,16.16,0,0,0,2.91-1.84l.57-.42.47.33a9.88,9.88,0,0,0,10.21.4c2-1.11,6.39-4.53,4.69-12.29a42.55,42.55,0,0,0-3.84-9.56c-.45-.88-.87-1.72-1.11-2.28l-4.12-9.58-2.63-6.1-1.22-2.83-3.07-.18-.77-.07.05-.8-5.35.06h-.13l-5.33-.68Z"/>
        </g>
        <path class="cls-25" d="M754,386.85a10,10,0,1,1-9.4-10.57A10,10,0,0,1,754,386.85Z"/>
        <g>
          <path class="cls-26" d="M748.5,382.4c-1.4,0-2.82,0-4.22-.12-35.74-2.11-69.71-30.92-95.64-81.14-22.73-44-35.3-97.82-32.79-140.42,4.81-81.79,67.32-145.85,142.31-145.85,2.56,0,5.16.08,7.72.23,37.7,2.22,72.19,20.34,97.11,51s37.23,70.11,34.82,111.18c-2.45,41.65-20.68,92.77-47.56,133.4C819.66,356.94,783.53,382.4,748.5,382.4Z"/>
          <path class="cls-2" d="M758.16,17.37c2.52,0,5,.07,7.58.22,76.48,4.5,134.49,75.94,129.57,159.57C890.48,259.3,823.36,379.9,748.5,379.9c-1.36,0-2.71,0-4.07-.12-76.49-4.5-131-135.29-126.09-218.92C623.1,80,685,17.37,758.16,17.37m0-5h0c-76.31,0-139.92,65.1-144.81,148.2-2.53,43,10.14,97.33,33.07,141.72,12,23.31,26.56,43,42,56.87,17.64,15.86,36.38,24.48,55.71,25.61,1.45.09,2.92.13,4.37.13,18.9,0,38-7.1,56.83-21.12,16.76-12.49,32.58-29.88,47-51.69,27.12-41,45.5-92.57,48-134.64,2.46-41.69-10.1-81.79-35.37-112.9S804.44,14.86,766,12.6c-2.61-.15-5.26-.23-7.86-.23Z"/>
        </g>
      </g>
      <g>
        <path class="cls-27" d="M941.94,346.24a62.79,62.79,0,0,1-13.79-60.4l.17-.56,33.86-7.72-.5,1.64A60.78,60.78,0,0,0,975,337.68l1.16,1.26-33.86,7.73Z"/>
        <path class="cls-2" d="M960.73,278.91a61.51,61.51,0,0,0,13.56,59.44l-31.61,7.22a61.55,61.55,0,0,1-13.57-59.44l31.62-7.22m2.91-2.71-3.36.76-15.79,3.61-15.83,3.61-1.13.26-.34,1.11a63.83,63.83,0,0,0,14,61.37l.79.85,1.13-.25,15.81-3.61,15.8-3.61,3.36-.76L975.76,337a59.78,59.78,0,0,1-13.12-57.51l1-3.29Z"/>
      </g>
      <g>
        <polygon class="cls-28" points="701.2 45.47 684.27 54.37 687.5 35.52 673.8 22.17 692.74 19.41 701.2 2.26 709.67 19.41 728.6 22.17 714.9 35.52 718.14 54.37 701.2 45.47"/>
        <path class="cls-2" d="M701.2,4.52,709,20.33l17.44,2.53L713.83,35.17l3,17.38L701.2,44.34l-15.6,8.21,3-17.38L676,22.86l17.45-2.53,7.8-15.81m0-4.52-1.79,3.63L692.07,18.5l-16.4,2.38-4,.59,2.9,2.83,11.87,11.57-2.8,16.34-.69,4,3.59-1.88L701.2,46.6l14.68,7.72,3.58,1.88-.68-4L716,35.87,727.85,24.3l2.9-2.83-4-.59L710.33,18.5,703,3.63,701.2,0Z"/>
      </g>
      <g>
        <polygon class="cls-29" points="1044.22 206.12 1027.28 215.03 1030.52 196.17 1016.82 182.82 1035.75 180.07 1044.22 162.91 1052.68 180.07 1071.62 182.82 1057.92 196.17 1061.15 215.03 1044.22 206.12"/>
        <path class="cls-2" d="M1044.22,165.17,1052,181l17.45,2.54-12.63,12.3,3,17.38-15.6-8.21-15.61,8.21,3-17.38L1019,183.52l17.44-2.54,7.81-15.81m0-4.52-1.8,3.64-7.33,14.86-16.41,2.39-4,.58,2.9,2.83,11.87,11.57-2.8,16.34-.68,4,3.58-1.88,14.68-7.72,14.67,7.72,3.59,1.88-.69-4-2.8-16.34L1070.86,185l2.9-2.83-4-.58-16.4-2.39L1046,164.29l-1.79-3.64Z"/>
      </g>
      <path class="cls-2" d="M737,60.65c-3.95,9.2-1.51,19.09,5.46,22.08s15.81-2,19.77-11.24,1.51-19.1-5.45-22.09S741,51.44,737,60.65Z"/>
      <path class="cls-2" d="M734.52,86.52c-1.52,3.54-.58,7.34,2.09,8.48s6.07-.78,7.59-4.31.58-7.34-2.09-8.48S736,83,734.52,86.52Z"/>
      <path class="cls-2" d="M910.41,164.12c.6,8.6,6.36,15.22,12.87,14.77s11.32-7.79,10.72-16.4-6.35-15.22-12.86-14.77S909.82,155.51,910.41,164.12Z"/>
      <path class="cls-2" d="M918.67,184.93c.22,3.3,2.44,5.84,4.94,5.67s4.34-3,4.11-6.29-2.44-5.85-4.94-5.68S918.44,181.62,918.67,184.93Z"/>
      <g>
        <g>
          <path class="cls-30" d="M749,419.61a6,6,0,0,1-4.41-1.9,7.49,7.49,0,0,1-.51-.61l-.16-.21a1.7,1.7,0,0,0-.53.11,8.26,8.26,0,0,0-.82.33,10.58,10.58,0,0,1-2.15.74,6.62,6.62,0,0,1-1.3.14,5.38,5.38,0,0,1-2.48-.6,5.52,5.52,0,0,1-3.41-1.71,11.41,11.41,0,0,1-1.38-1.8c-.16-.25-.32-.5-.5-.74A1.87,1.87,0,0,0,731,413l-.25.09c-.25.08-.5.17-.76.23a6.26,6.26,0,0,1-1.37.16,6.07,6.07,0,0,1-4.56-2.08c-4.31-5,1.61-10.56,4.79-13.53.54-.51,1-1,1.38-1.33l9.57-10.1,1.48.44c.49.15,1,.28,1.63.41l.11-.38,2.52.91.11.05,2.74.63-.12.41c.55.21,1.08.41,1.57.55l1.47.45,2.38,13.71c.09.51.25,1.15.42,1.87,1,4.23,2.89,12.11-3.49,13.92A5.65,5.65,0,0,1,749,419.61Z"/>
          <path class="cls-2" d="M740.56,389.25c1.21.37,2.65.63,4.08.93l0,0,.27.11.3.06,0,.05c1.37.53,2.71,1.11,3.91,1.48q1.07,6.09,2.12,12.19c.57,3.28,3.6,11.57-1.29,13a3.56,3.56,0,0,1-3.49-1,8,8,0,0,0-1.1-1.22,2.29,2.29,0,0,0-1.37-.4,4.19,4.19,0,0,0-1.36.24,22,22,0,0,1-2.67,1,4,4,0,0,1-.8.09,3,3,0,0,1-1.74-.56,3.07,3.07,0,0,1-2.38-1,22.5,22.5,0,0,1-1.67-2.3,3.09,3.09,0,0,0-2.28-1.38H731a8.36,8.36,0,0,0-1.6.41,3.39,3.39,0,0,1-.78.09,3.52,3.52,0,0,1-2.66-1.21c-3.31-3.86,3.8-9.09,6.09-11.51l8.5-9m.87-5.68-.2.66-2.18-.65-2.12,2.24-3.48,3.68-5,5.3c-.28.3-.76.74-1.27,1.22a32.38,32.38,0,0,0-5.23,5.81c-3.58,5.64-1,9.69.24,11.17a8.6,8.6,0,0,0,6.46,3,8.21,8.21,0,0,0,1.41-.12,11.85,11.85,0,0,0,1.46,1.82,8.11,8.11,0,0,0,4.43,2.36,7.81,7.81,0,0,0,3.23.69,8.68,8.68,0,0,0,1.8-.19,11.36,11.36,0,0,0,2.22-.72,8.54,8.54,0,0,0,5.86,2.31,8.36,8.36,0,0,0,2.28-.31c1.87-.54,6.24-2.5,6.37-9.18a32,32,0,0,0-1.14-7.73c-.16-.68-.31-1.32-.38-1.72L754.05,391l-.53-3-2.15-.65.19-.61-5.17-1.23-5-1.88Z"/>
        </g>
        <path class="cls-31" d="M738.57,385.22a7.25,7.25,0,1,0,9-4.85A7.25,7.25,0,0,0,738.57,385.22Z"/>
        <g>
          <path class="cls-32" d="M762.06,387.5a55.2,55.2,0,0,1-15.91-2.3c-25.1-7.58-44.38-33.8-54.28-73.83-8.65-35-8.45-75.2.52-104.94,14.57-48.28,57.2-82,103.67-82a95.31,95.31,0,0,1,27.54,4.07C878,144.93,907.73,206.61,889.81,266c-8.08,26.79-26.89,56.95-50.32,80.68C813.51,373,786,387.5,762.07,387.5Z"/>
          <path class="cls-2" d="M796.06,126.94a92.74,92.74,0,0,1,26.82,4c53.19,16,82.09,76.21,64.54,134.38C871.5,318,812.58,385,762.06,385a52.37,52.37,0,0,1-15.19-2.2c-53.19-16.05-69.63-117.49-52.08-175.65,14.61-48.44,56.83-80.21,101.27-80.21m0-5c-22.85,0-45.89,8.17-64.9,23A120.67,120.67,0,0,0,690,205.71c-9.1,30.14-9.31,70.86-.55,106.26,4.67,18.9,11.49,34.92,20.26,47.64,9.95,14.42,22,23.83,35.71,28A57.43,57.43,0,0,0,762.06,390c24.63,0,52.76-14.76,79.21-41.56,23.7-24,42.74-54.56,50.93-81.72,8.85-29.33,6.72-60.08-6-86.59-12.8-26.66-34.77-45.84-61.86-54a97.43,97.43,0,0,0-28.26-4.18Z"/>
        </g>
        <path class="cls-2" d="M831.33,191c.68,11.27,8.16,20,16.69,19.47s14.89-10.08,14.2-21.36-8.16-20-16.69-19.47S830.64,179.77,831.33,191Z"/>
        <path class="cls-2" d="M841.48,218.2c.27,4.33,3.14,7.67,6.41,7.47s5.72-3.87,5.46-8.2-3.14-7.67-6.41-7.47S841.22,213.87,841.48,218.2Z"/>
      </g>
    </g>
  </g>
</svg>
